<?xml version="1.0" encoding="UTF-8" standalone="no"?>
<!-- Created with Inkscape (http://www.inkscape.org/) -->

<svg
   width="21.166666mm"
   height="21.166666mm"
   viewBox="0 0 21.166666 21.166666"
   version="1.1"
   id="svg5"
   inkscape:version="1.1.1 (3bf5ae0d25, 2021-09-20)"
   sodipodi:docname="1.svg"
   xmlns:inkscape="http://www.inkscape.org/namespaces/inkscape"
   xmlns:sodipodi="http://sodipodi.sourceforge.net/DTD/sodipodi-0.dtd"
   xmlns="http://www.w3.org/2000/svg"
   xmlns:svg="http://www.w3.org/2000/svg">
  <sodipodi:namedview
     id="namedview7"
     pagecolor="#505050"
     bordercolor="#eeeeee"
     borderopacity="1"
     inkscape:pageshadow="0"
     inkscape:pageopacity="0"
     inkscape:pagecheckerboard="0"
     inkscape:document-units="mm"
     showgrid="false"
     fit-margin-top="0"
     fit-margin-left="0"
     fit-margin-right="0"
     fit-margin-bottom="0"
     inkscape:zoom="0.49887767"
     inkscape:cx="47.105737"
     inkscape:cy="-307.69066"
     inkscape:window-width="1920"
     inkscape:window-height="1057"
     inkscape:window-x="-8"
     inkscape:window-y="-8"
     inkscape:window-maximized="1"
     inkscape:current-layer="layer1" />
  <defs
     id="defs2" />
  <g
     inkscape:label="Layer 1"
     inkscape:groupmode="layer"
     id="layer1"
     transform="translate(-92.305954,-133.14345)">
    <g
       id="_1"
       data-name="1"
       transform="matrix(0.26458333,0,0,0.26458333,92.305954,133.14345)">
      <circle
         id="Ellipse_1149"
         data-name="Ellipse 1149"
         cx="38.916"
         cy="38.916"
         r="38.916"
         transform="translate(1.085,0.923)"
         fill="#ffeb3b" />
      <circle
         id="Ellipse_1150"
         data-name="Ellipse 1150"
         cx="33.544998"
         cy="33.544998"
         r="33.544998"
         transform="translate(6.456,6.294)"
         fill="#fdd835" />
      <path
         id="Path_56577"
         data-name="Path 56577"
         d="M 42,2 A 40,40 0 1 0 82,42 40,40 0 0 0 42,2 Z m 0,72 A 32,32 0 1 1 74,42 32,32 0 0 1 42,74 Z m 30.656,-48.16 2.312,-1.333 a 37.091,37.091 0 0 1 2.725,6.551 l -2.576,0.689 A 34.385,34.385 0 0 0 72.656,25.84 Z m -1.333,-2.307 a 34.8,34.8 0 0 0 -3.9,-5.067 l 1.885,-1.885 a 37.543,37.543 0 0 1 4.325,5.619 z m -5.781,-6.955 a 34.8,34.8 0 0 0 -5.067,-3.9 l 1.333,-2.311 a 37.543,37.543 0 0 1 5.621,4.321 z M 58.16,11.344 A 34.385,34.385 0 0 0 52.255,8.883 l 0.689,-2.576 a 37.092,37.092 0 0 1 6.551,2.725 z M 49.677,8.2 A 34.633,34.633 0 0 0 43.333,7.367 V 4.7 a 37.248,37.248 0 0 1 7.033,0.924 z M 40.666,7.367 A 34.633,34.633 0 0 0 34.322,8.2 L 33.633,5.624 A 37.248,37.248 0 0 1 40.667,4.7 Z M 31.745,8.883 A 34.385,34.385 0 0 0 25.84,11.344 L 24.507,9.032 a 37.092,37.092 0 0 1 6.549,-2.725 z m -8.212,3.8 a 34.8,34.8 0 0 0 -5.067,3.9 L 16.578,14.698 A 37.543,37.543 0 0 1 22.2,10.372 Z m -6.955,5.781 a 34.8,34.8 0 0 0 -3.9,5.067 L 10.372,22.2 a 37.542,37.542 0 0 1 4.321,-5.621 z M 11.344,25.84 A 34.385,34.385 0 0 0 8.883,31.745 L 6.307,31.056 A 37.092,37.092 0 0 1 9.032,24.505 Z M 8.2,34.323 A 34.633,34.633 0 0 0 7.367,40.667 H 4.7 A 37.248,37.248 0 0 1 5.624,33.634 Z M 7.367,43.334 A 34.634,34.634 0 0 0 8.2,49.677 L 5.624,50.366 A 37.248,37.248 0 0 1 4.7,43.333 Z m 1.516,8.921 a 34.386,34.386 0 0 0 2.461,5.905 L 9.032,59.493 A 37.092,37.092 0 0 1 6.307,52.944 Z m 3.8,8.212 a 34.8,34.8 0 0 0 3.9,5.067 l -1.885,1.888 A 37.542,37.542 0 0 1 10.372,61.8 Z m 5.781,6.955 a 34.8,34.8 0 0 0 5.067,3.9 L 22.2,73.628 a 37.542,37.542 0 0 1 -5.621,-4.321 z m 7.376,5.235 a 34.385,34.385 0 0 0 5.905,2.461 l -0.689,2.576 a 37.092,37.092 0 0 1 -6.551,-2.725 z m 8.483,3.143 a 34.634,34.634 0 0 0 6.344,0.833 V 79.3 a 37.247,37.247 0 0 1 -7.033,-0.924 z m 9.011,0.833 A 34.635,34.635 0 0 0 49.678,75.8 l 0.689,2.576 A 37.248,37.248 0 0 1 43.334,79.3 Z m 8.921,-1.516 a 34.386,34.386 0 0 0 5.905,-2.461 l 1.333,2.312 a 37.091,37.091 0 0 1 -6.551,2.725 z m 8.212,-3.8 a 34.8,34.8 0 0 0 5.067,-3.9 l 1.885,1.885 A 37.543,37.543 0 0 1 61.8,73.628 Z m 6.955,-5.781 a 34.8,34.8 0 0 0 3.9,-5.067 l 2.306,1.331 a 37.544,37.544 0 0 1 -4.321,5.621 z m 5.235,-7.376 a 34.387,34.387 0 0 0 2.461,-5.905 l 2.576,0.689 a 37.091,37.091 0 0 1 -2.725,6.551 z M 75.8,49.677 a 34.635,34.635 0 0 0 0.833,-6.344 H 79.3 a 37.247,37.247 0 0 1 -0.924,7.033 z m 0.833,-9.011 A 34.634,34.634 0 0 0 75.8,34.322 l 2.576,-0.689 a 37.247,37.247 0 0 1 0.924,7.033 z"
         transform="translate(-2,-2)"
         fill="#fbc02e" />
      <path
         id="Path_56578"
         data-name="Path 56578"
         d="M 31.809,45.358 35.355,31.767 41.469,30.621 43.012,24.7 36.9,25.85 40.25,13 H 31.809 L 27.794,27.558 21.637,28.712 20,34.646 26.156,33.492 20.554,53.8 h 26.73 l 2.814,-8.44 z"
         transform="translate(5.725,3.585)"
         fill="#fff59d" />
    </g>
  </g>
</svg>
