<?xml version="1.0" encoding="UTF-8" standalone="no"?>
<!-- Created with Inkscape (http://www.inkscape.org/) -->

<svg
   width="13.123584mm"
   height="21.158251mm"
   viewBox="0 0 13.123584 21.158251"
   version="1.1"
   id="svg5"
   sodipodi:docname="2.svg"
   inkscape:version="1.1.1 (3bf5ae0d25, 2021-09-20)"
   xmlns:inkscape="http://www.inkscape.org/namespaces/inkscape"
   xmlns:sodipodi="http://sodipodi.sourceforge.net/DTD/sodipodi-0.dtd"
   xmlns="http://www.w3.org/2000/svg"
   xmlns:svg="http://www.w3.org/2000/svg">
  <sodipodi:namedview
     id="namedview7"
     pagecolor="#505050"
     bordercolor="#eeeeee"
     borderopacity="1"
     inkscape:pageshadow="0"
     inkscape:pageopacity="0"
     inkscape:pagecheckerboard="0"
     inkscape:document-units="mm"
     showgrid="false"
     inkscape:zoom="0.49887767"
     inkscape:cx="-321.72216"
     inkscape:cy="-53.119235"
     inkscape:window-width="1920"
     inkscape:window-height="1057"
     inkscape:window-x="-8"
     inkscape:window-y="-8"
     inkscape:window-maximized="1"
     inkscape:current-layer="layer1"
     fit-margin-top="0"
     fit-margin-left="0"
     fit-margin-right="0"
     fit-margin-bottom="0" />
  <defs
     id="defs2" />
  <g
     inkscape:label="Layer 1"
     inkscape:groupmode="layer"
     id="layer1"
     transform="translate(-88.372135,-40.865517)">
    <g
       id="_2"
       data-name="2"
       transform="matrix(0.26458333,0,0,0.26458333,65.565181,40.865819)">
      <path
         id="Path_56590"
         data-name="Path 56590"
         d="m 149.279,296.963 -19.724,25.992 a 1.414,1.414 0 0 1 -2.251,0 L 107.58,296.963 a 0.706,0.706 0 0 1 0.894,-1.051 l 19.291,10.278 a 1.412,1.412 0 0 0 1.315,0.007 l 19.3,-10.285 a 0.706,0.706 0 0 1 0.899,1.051 z"
         transform="translate(-17.434,-243.546)"
         fill="#6e6f80" />
      <path
         id="Path_56591"
         data-name="Path 56591"
         d="m 247.105,296.963 -19.732,26 a 0.631,0.631 0 0 1 -1.117,-0.406 v -15.634 a 0.633,0.633 0 0 1 0.335,-0.558 l 19.62,-10.453 a 0.706,0.706 0 0 1 0.894,1.051 z"
         transform="translate(-115.261,-243.546)"
         fill="#585966" />
      <path
         id="Path_56592"
         data-name="Path 56592"
         d="m 142.511,34.028 -21.27,11.178 a 1.41,1.41 0 0 1 -1.315,0 L 98.656,34.028 a 1.415,1.415 0 0 1 -0.512,-2.045 l 21.27,-31.361 a 1.413,1.413 0 0 1 2.338,0 l 21.272,31.363 a 1.415,1.415 0 0 1 -0.512,2.045 z"
         transform="translate(-9.588,-0.002)"
         fill="#6e6f80" />
      <path
         id="Path_56593"
         data-name="Path 56593"
         d="M 248.183,34.523 226.907,45.7 a 0.452,0.452 0 0 1 -0.651,-0.41 V 1.064 A 0.451,0.451 0 0 1 226.9,0.65 1.4,1.4 0 0 1 227.426,1.116 L 248.7,32.479 a 1.415,1.415 0 0 1 -0.512,2.045 z"
         transform="translate(-115.261,-0.497)"
         fill="#585966" />
      <path
         id="Path_56594"
         data-name="Path 56594"
         d="M 110.338,245.3 87.011,233.045 a 1.414,1.414 0 1 1 1.316,-2.5 L 111,242.456 133.669,230.542 a 1.414,1.414 0 1 1 1.315,2.5 L 111.653,245.3 a 1.414,1.414 0 0 1 -1.315,0 z"
         transform="translate(0,-189.667)"
         fill="#6e6f80" />
      <g
         id="Group_42732"
         data-name="Group 42732"
         transform="translate(89.996)">
        <path
           id="Path_56595"
           data-name="Path 56595"
           d="m 139.08,0.131 a 0.454,0.454 0 0 0 -0.594,0.436 v 23.548 a 2.845,2.845 0 0 1 -1.055,2.2 c -4.378,3.568 -9.763,4.684 -15.306,4.024 a 2.825,2.825 0 0 1 -1.988,-4.393 L 137.316,0.62 a 1.412,1.412 0 0 1 1.764,-0.49 z"
           transform="translate(-117.487)"
           fill="#828396" />
        <path
           id="Path_56596"
           data-name="Path 56596"
           d="m 125.783,306.489 a 8.223,8.223 0 0 1 -5.91,5.333 1.4,1.4 0 0 1 -1.42,-0.528 l -10.875,-14.331 a 0.706,0.706 0 0 1 0.894,-1.051 l 16.639,8.866 a 1.41,1.41 0 0 1 0.672,1.711 z"
           transform="translate(-107.429,-243.545)"
           fill="#828396" />
      </g>
    </g>
  </g>
</svg>
