<?xml version="1.0" encoding="UTF-8" standalone="no"?>
<!-- Created with Inkscape (http://www.inkscape.org/) -->

<svg
   width="21.427893mm"
   height="19.803059mm"
   viewBox="0 0 21.427893 19.803059"
   version="1.1"
   id="svg5"
   sodipodi:docname="3.svg"
   inkscape:version="1.1.1 (3bf5ae0d25, 2021-09-20)"
   xmlns:inkscape="http://www.inkscape.org/namespaces/inkscape"
   xmlns:sodipodi="http://sodipodi.sourceforge.net/DTD/sodipodi-0.dtd"
   xmlns="http://www.w3.org/2000/svg"
   xmlns:svg="http://www.w3.org/2000/svg">
  <sodipodi:namedview
     id="namedview7"
     pagecolor="#505050"
     bordercolor="#eeeeee"
     borderopacity="1"
     inkscape:pageshadow="0"
     inkscape:pageopacity="0"
     inkscape:pagecheckerboard="0"
     inkscape:document-units="mm"
     showgrid="false"
     inkscape:zoom="0.49887767"
     inkscape:cx="-548.2306"
     inkscape:cy="-201.45219"
     inkscape:window-width="1920"
     inkscape:window-height="1057"
     inkscape:window-x="-8"
     inkscape:window-y="-8"
     inkscape:window-maximized="1"
     inkscape:current-layer="layer1"
     fit-margin-top="0"
     fit-margin-left="0"
     fit-margin-right="0"
     fit-margin-bottom="0" />
  <defs
     id="defs2" />
  <g
     inkscape:label="Layer 1"
     inkscape:groupmode="layer"
     id="layer1"
     transform="translate(-59.823554,-39.421685)">
    <g
       id="_3"
       data-name="3"
       transform="matrix(0.26458333,0,0,0.26458333,59.82391,39.424831)">
      <path
         id="Path_109836"
         data-name="Path 109836"
         d="m 102.767,153.261 a 5.455,5.455 0 0 0 5.14,5.744 h 0.324 a 5.453,5.453 0 1 0 -5.464,-5.744 z"
         transform="translate(-80.566,-116.114)"
         fill="#0033ad" />
      <path
         id="Path_109837"
         data-name="Path 109837"
         d="m 1.851,165.486 a 1.763,1.763 0 1 0 1.663,1.857 1.749,1.749 0 0 0 -1.663,-1.857 z"
         transform="translate(0.008,-129.743)"
         fill="#0033ad" />
      <path
         id="Path_109838"
         data-name="Path 109838"
         d="m 91.9,13.278 a 1.7678666,1.7678666 0 0 0 -1.6,-3.153 1.7678666,1.7678666 0 0 0 1.6,3.153 z"
         transform="translate(-70.044,-7.789)"
         fill="#0033ad" />
      <path
         id="Path_109839"
         data-name="Path 109839"
         d="m 112.506,51.416 a 2.719,2.719 0 1 0 -3.65,-1.209 2.724,2.724 0 0 0 3.65,1.209 z"
         transform="translate(-85.122,-36.274)"
         fill="#0033ad" />
      <path
         id="Path_109840"
         data-name="Path 109840"
         d="m 36.9,85.841 a 2.246,2.246 0 1 0 -0.648,-3.11 v 0 a 2.235,2.235 0 0 0 0.648,3.11 z"
         transform="translate(-28.127,-64.07)"
         fill="#0033ad" />
      <path
         id="Path_109841"
         data-name="Path 109841"
         d="m 45.455,160.983 a 2.725,2.725 0 1 0 2.57,2.872 v 0 a 2.727,2.727 0 0 0 -2.57,-2.872 z"
         transform="translate(-33.382,-126.212)"
         fill="#0033ad" />
      <path
         id="Path_109842"
         data-name="Path 109842"
         d="m 37.517,244.824 a 2.25,2.25 0 1 0 3.023,0.993 v 0 a 2.259,2.259 0 0 0 -3.023,-0.993 z"
         transform="translate(-28.445,-191.762)"
         fill="#0033ad" />
      <path
         id="Path_109843"
         data-name="Path 109843"
         d="m 85.717,113.544 a 3.2,3.2 0 1 0 -0.929,-4.427 3.179,3.179 0 0 0 0.929,4.427 z"
         transform="translate(-66.064,-84.409)"
         fill="#0033ad" />
      <path
         id="Path_109844"
         data-name="Path 109844"
         d="m 242.007,50.94 a 2.728,2.728 0 1 0 -0.777,-3.779 v 0 a 2.7,2.7 0 0 0 0.777,3.779 z"
         transform="translate(-188.773,-36.015)"
         fill="#0033ad" />
      <path
         id="Path_109845"
         data-name="Path 109845"
         d="m 269.42,12.8 a 1.764,1.764 0 1 0 -0.518,-2.462 1.819,1.819 0 0 0 0.518,2.462 z"
         transform="translate(-210.615,-7.487)"
         fill="#0033ad" />
      <path
         id="Path_109846"
         data-name="Path 109846"
         d="m 227.511,147.867 a 5.4502627,5.4502627 0 1 0 -0.6,10.884 h 0.3 a 5.446,5.446 0 0 0 0.3,-10.884 z"
         transform="translate(-173.867,-115.925)"
         fill="#0033ad" />
      <path
         id="Path_109847"
         data-name="Path 109847"
         d="m 132.965,104.307 a 5.457,5.457 0 1 0 2.419,-7.342 5.464,5.464 0 0 0 -2.419,7.342 z"
         transform="translate(-103.788,-75.561)"
         fill="#0033ad" />
      <path
         id="Path_109848"
         data-name="Path 109848"
         d="M 321.1,85.4 A 2.246,2.246 0 1 0 318.055,84.407 2.284,2.284 0 0 0 321.1,85.4 Z"
         transform="translate(-249.19,-63.631)"
         fill="#0033ad" />
      <path
         id="Path_109849"
         data-name="Path 109849"
         d="m 262.581,107.59 a 3.2,3.2 0 1 0 4.3,1.425 3.2,3.2 0 0 0 -4.3,-1.425 z"
         transform="translate(-204.489,-84.091)"
         fill="#0033ad" />
      <path
         id="Path_109850"
         data-name="Path 109850"
         d="m 178.8,4.48 a 2.276,2.276 0 0 0 2.375,-2.116 2.2503902,2.2503902 0 0 0 -4.492,-0.281 2.282,2.282 0 0 0 2.116,2.4 z"
         transform="translate(-138.528,0.015)"
         fill="#0033ad" />
      <path
         id="Path_109851"
         data-name="Path 109851"
         d="m 175.409,62.87 a 3.2,3.2 0 1 0 -3.023,-3.369 3.18,3.18 0 0 0 3.023,3.369 z"
         transform="translate(-135.154,-44.274)"
         fill="#0033ad" />
      <path
         id="Path_109852"
         data-name="Path 109852"
         d="m 89.153,215.678 a 3.2,3.2 0 1 0 -4.3,-1.425 3.2,3.2 0 0 0 4.3,1.425 z"
         transform="translate(-66.26,-164.344)"
         fill="#0033ad" />
      <path
         id="Path_109853"
         data-name="Path 109853"
         d="m 192.772,98.862 a 5.451,5.451 0 1 0 4.557,-2.462 5.437,5.437 0 0 0 -4.557,2.462 z"
         transform="translate(-150.444,-75.579)"
         fill="#0033ad" />
      <path
         id="Path_109854"
         data-name="Path 109854"
         d="m 202.4,202.484 a 5.452,5.452 0 1 0 -2.419,7.321 v 0 a 5.426,5.426 0 0 0 2.44,-7.278 c 0.005,-0.022 0.005,-0.022 -0.021,-0.043 z"
         transform="translate(-150.596,-156.397)"
         fill="#0033ad" />
      <path
         id="Path_109855"
         data-name="Path 109855"
         d="m 266.016,209.689 a 3.2,3.2 0 1 0 0.929,4.427 3.179,3.179 0 0 0 -0.929,-4.427 z"
         transform="translate(-204.684,-163.991)"
         fill="#0033ad" />
      <path
         id="Path_109856"
         data-name="Path 109856"
         d="m 312.625,163.255 a 2.725,2.725 0 1 0 -2.872,2.57 v 0 a 2.741,2.741 0 0 0 2.872,-2.57 z"
         transform="translate(-240.842,-125.742)"
         fill="#0033ad" />
      <path
         id="Path_109857"
         data-name="Path 109857"
         d="m 360.551,164.686 a 1.763,1.763 0 1 0 1.663,1.857 1.777,1.777 0 0 0 -1.663,-1.857 z"
         transform="translate(-281.23,-129.116)"
         fill="#0033ad" />
      <path
         id="Path_109858"
         data-name="Path 109858"
         d="m 321.793,244.383 a 2.246,2.246 0 1 0 0.648,3.11 2.235,2.235 0 0 0 -0.648,-3.11 z"
         transform="translate(-249.577,-191.321)"
         fill="#0033ad" />
      <path
         id="Path_109859"
         data-name="Path 109859"
         d="m 92.684,320.844 a 1.761,1.761 0 1 0 0.5,2.44 v 0 a 1.734,1.734 0 0 0 -0.5,-2.44 z"
         transform="translate(-70.526,-251.326)"
         fill="#0033ad" />
      <path
         id="Path_109860"
         data-name="Path 109860"
         d="m 270.3,320.392 a 1.7678666,1.7678666 0 1 0 1.6,3.153 1.7678666,1.7678666 0 0 0 -1.6,-3.153 z"
         transform="translate(-211.173,-251.048)"
         fill="#0033ad" />
      <path
         id="Path_109861"
         data-name="Path 109861"
         d="m 142.572,208.03 a 5.46,5.46 0 1 0 -7.558,1.576 5.477,5.477 0 0 0 7.558,-1.576 z"
         transform="translate(-103.915,-156.48)"
         fill="#0033ad" />
      <path
         id="Path_109862"
         data-name="Path 109862"
         d="m 113.163,275.784 a 2.728,2.728 0 1 0 0.777,3.779 v 0 a 2.7,2.7 0 0 0 -0.777,-3.779 z"
         transform="translate(-85.412,-215.876)"
         fill="#0033ad" />
      <path
         id="Path_109863"
         data-name="Path 109863"
         d="m 178.756,325.689 a 2.25,2.25 0 1 0 2.116,2.4 2.276,2.276 0 0 0 -2.116,-2.4 z"
         transform="translate(-138.285,-255.351)"
         fill="#0033ad" />
      <path
         id="Path_109864"
         data-name="Path 109864"
         d="m 175.247,260.378 a 3.2,3.2 0 1 0 3.023,3.369 3.18,3.18 0 0 0 -3.023,-3.369 z"
         transform="translate(-134.755,-204.142)"
         fill="#0033ad" />
      <path
         id="Path_109865"
         data-name="Path 109865"
         d="m 242.794,275.322 a 2.728,2.728 0 1 0 3.693,1.209 2.728,2.728 0 0 0 -3.693,-1.209 z"
         transform="translate(-189.193,-215.631)"
         fill="#0033ad" />
    </g>
  </g>
</svg>
