<svg id="_4" data-name="4" xmlns="http://www.w3.org/2000/svg" width="80" height="80" viewBox="0 0 80 80">
  <path id="Path_56597" data-name="Path 56597" d="M80,40A40,40,0,1,1,10.976,12.477q.59-.624,1.208-1.221a40,40,0,0,1,55.631,0c.17.163.338.33.5.5A39.871,39.871,0,0,1,80,40Z" fill="#1ba27a"/>
  <path id="Path_56598" data-name="Path 56598" d="M59.429,94.307V85.592H80.243V72.035H23.379V85.592H44.191V94.34c-16.812.848-29.406,4.321-29.406,8.478s12.594,7.63,29.406,8.478v27.159a40.595,40.595,0,0,0,15.238.134v-27.26c17.161-.785,30.106-4.3,30.106-8.511S76.591,95.092,59.429,94.307ZM52.16,108.175c-18.753,0-33.955-2.785-33.955-6.222,0-2.934,11.079-5.394,25.987-6.05v9.965a54.065,54.065,0,0,0,15.238,0v-10c15.259.611,26.685,3.1,26.685,6.08C86.114,105.389,70.911,108.175,52.16,108.175Z" transform="translate(-12.16 -59.245)" fill="#f0efeb"/>
</svg>
