<svg id="_6" data-name="6" xmlns="http://www.w3.org/2000/svg" width="80.171" height="80.171" viewBox="0 0 80.171 80.171">
  <path id="Path_109831" data-name="Path 109831" d="M40.085,0A40.085,40.085,0,1,1,0,40.085,40.083,40.083,0,0,1,40.085,0Z" fill="#f0b90b" fill-rule="evenodd"/>
  <path id="Path_109832" data-name="Path 109832" d="M527.845,741.605l.029,10.6,9.006,5.3v6.206L522.6,755.336V738.505l5.242,3.1Zm0-10.6v6.177l-5.245-3.1V727.9l5.245-3.1,5.271,3.1-5.271,3.1Zm12.8-3.1,5.245-3.1,5.271,3.1-5.271,3.1-5.245-3.1Z" transform="translate(-505.814 -701.52)" fill="#fff"/>
  <path id="Path_109833" data-name="Path 109833" d="M803.9,750.007V743.8l5.245,3.1v6.176l-5.245-3.074Zm9.006,9.72,5.245,3.1,5.271-3.1V765.9l-5.271,3.1-5.245-3.1v-6.177ZM830.945,727.9l5.245-3.1,5.271,3.1v6.177l-5.271,3.1v-6.177l-5.245-3.1Zm5.245,24.3.029-10.6,5.245-3.1v16.831l-14.277,8.374V757.5l9-5.3Z" transform="translate(-778.079 -701.52)" fill="#fff"/>
  <path id="Path_109834" data-name="Path 109834" d="M1534.045,1322.606l-5.245,3.074V1319.5l5.245-3.1Z" transform="translate(-1479.695 -1274.117)" fill="#fff"/>
  <path id="Path_109835" data-name="Path 109835" d="M832.429,413.9l.029,6.205-9.032,5.3v10.625L818.18,439.1l-5.245-3.074V425.4l-9.032-5.3V413.9l5.268-3.1,8.977,5.326,9.032-5.326,5.271,3.1ZM803.9,403.3l14.251-8.4,14.277,8.4-5.245,3.1-9.032-5.325-9.006,5.325-5.245-3.1Z" transform="translate(-778.079 -382.216)" fill="#fff"/>
</svg>
