<svg id="_7" data-name="7" xmlns="http://www.w3.org/2000/svg" width="80" height="80" viewBox="0 0 80 80">
  <path id="Path_109827" data-name="Path 109827" d="M40,80A40,40,0,1,0,0,40,39.9,39.9,0,0,0,40,80Z" transform="translate(0 0)" fill="#2775ca"/>
  <path id="Path_109828" data-name="Path 109828" d="M742.048,537.875c0-6.629-3.977-8.9-11.932-9.848-5.682-.758-6.818-2.273-6.818-4.924s1.894-4.356,5.682-4.356c3.409,0,5.3,1.136,6.25,3.977a1.425,1.425,0,0,0,1.326.947h3.03a1.294,1.294,0,0,0,1.326-1.325v-.189a9.461,9.461,0,0,0-8.522-7.765v-4.545c0-.758-.568-1.326-1.515-1.516h-2.841c-.758,0-1.326.568-1.516,1.516V514.2c-5.682.758-9.28,4.545-9.28,9.28,0,6.25,3.788,8.712,11.742,9.659,5.3.947,7.007,2.083,7.007,5.113s-2.652,5.114-6.25,5.114c-4.924,0-6.629-2.084-7.2-4.924a1.383,1.383,0,0,0-1.325-1.136H718a1.294,1.294,0,0,0-1.325,1.326v.189c.757,4.735,3.787,8.143,10.037,9.091v4.545c0,.757.568,1.325,1.515,1.515h2.841c.758,0,1.326-.568,1.516-1.515v-4.545C738.261,546.965,742.048,542.988,742.048,537.875Z" transform="translate(-689.517 -490.792)" fill="#fff"/>
  <path id="Path_109829" data-name="Path 109829" d="M268.577,341.082a23.561,23.561,0,0,1,0-44.36,1.583,1.583,0,0,0,.955-1.579v-2.21a1.2,1.2,0,0,0-.955-1.263.965.965,0,0,0-.637.158,28.342,28.342,0,0,0,0,54.148.97.97,0,0,0,1.433-.632c.159-.158.159-.316.159-.631V342.5A2.1,2.1,0,0,0,268.577,341.082Zm16.873-49.254a.97.97,0,0,0-1.433.632c-.159.158-.159.316-.159.632v2.21a2.091,2.091,0,0,0,.955,1.579,23.561,23.561,0,0,1,0,44.36,1.583,1.583,0,0,0-.955,1.579v2.21a1.2,1.2,0,0,0,.955,1.263.965.965,0,0,0,.637-.158,28.315,28.315,0,0,0,18.624-35.678A28.75,28.75,0,0,0,285.449,291.828Z" transform="translate(-236.695 -278.413)" fill="#fff"/>
</svg>
