<svg xmlns="http://www.w3.org/2000/svg" width="80" height="80.009" viewBox="0 0 80 80.009">
  <g id="_8" data-name="8" transform="translate(-289.637 -341.505)">
    <g id="Group_42731" data-name="Group 42731" transform="translate(289.637 341.505)">
      <path id="Path_56588" data-name="Path 56588" d="M197.636,75.65a39.99,39.99,0,1,1-29.131-48.485A39.994,39.994,0,0,1,197.636,75.65Z" transform="translate(-118.834 -25.968)" fill="#f7931a"/>
      <path id="Path_56589" data-name="Path 56589" d="M251.693,152.187a1.8,1.8,0,0,1-2.27,1.177c.049.072-3.6-.9-3.6-.9l-2.459,5.67,6.446,1.607c1.2.3,2.374.615,3.531.911l-2.05,8.23,4.948,1.234,2.03-8.143c1.352.367,2.664.705,3.947,1.024l-2.023,8.1,4.953,1.234,2.05-8.215c8.446,1.6,14.8.954,17.471-6.686,2.154-6.151-.107-9.7-4.551-12.013,3.236-.746,5.674-2.875,6.324-7.272h0c.9-6.007-3.675-9.236-9.929-11.391l2.029-8.137-4.953-1.234-1.975,7.923c-1.3-.324-2.64-.631-3.968-.934l1.989-7.975-4.95-1.234-2.03,8.134c-1.078-.245-2.136-.488-3.163-.744l.006-.025-6.831-1.706-1.318,5.29s3.675.842,3.6.894a2.636,2.636,0,0,1,2.308,2.881Zm23.43,1.835c-1.531,6.151-11.887,2.826-15.245,1.992l2.72-10.9C265.956,145.949,276.723,147.608,275.123,154.023Zm1.532-15.959c-1.4,5.6-10.016,2.752-12.812,2.056l2.466-9.89C269.1,130.927,278.11,132.228,276.655,138.064Z" transform="translate(-226.197 -104.322)" fill="#fff"/>
    </g>
  </g>
</svg>
