<?xml version="1.0" encoding="utf-8"?>
<!-- Generator: Adobe Illustrator 16.0.0, SVG Export Plug-In . SVG Version: 6.00 Build 0)  -->
<!DOCTYPE svg PUBLIC "-//W3C//DTD SVG 1.1//EN" "http://www.w3.org/Graphics/SVG/1.1/DTD/svg11.dtd">
<svg version="1.1" id="Layer_1" xmlns="http://www.w3.org/2000/svg" xmlns:xlink="http://www.w3.org/1999/xlink" x="0px" y="0px"
	 width="42px" height="31px" viewBox="0 0 42 31" enable-background="new 0 0 42 31" xml:space="preserve">
<path fill="#0037A4" d="M1,11.199c0.182,0.006,0.364,0.019,0.546,0.019c10.672,0.001,21.342,0,32.014,0.002
	c0.598,0,0.513-0.068,0.516,0.519c0.006,0.778-0.01,1.558,0.008,2.336c0.005,0.271-0.045,0.378-0.355,0.389
	c-4.455,0.158-8.06,3.159-9.014,7.488c-0.143,0.647-0.225,1.307-0.193,1.97c0.016,0.309-0.074,0.389-0.384,0.389
	c-3.331-0.012-6.661-0.007-9.992-0.007c-3.096,0-6.191,0-9.286,0c-2.077,0-3.281-0.923-3.813-2.921
	C1.041,21.361,1.016,21.344,1,21.324C1,17.949,1,14.575,1,11.199z M10.209,19.631c1.071,0,2.143,0.003,3.214-0.002
	c0.77-0.002,1.293-0.477,1.292-1.158c0-0.674-0.53-1.171-1.292-1.173c-2.143-0.007-4.285-0.007-6.427,0
	c-0.763,0.003-1.292,0.497-1.292,1.173c-0.001,0.682,0.524,1.156,1.292,1.16C8.067,19.634,9.138,19.631,10.209,19.631z
	 M8.323,15.892c0.483,0,0.966,0.006,1.449-0.001c0.694-0.012,1.189-0.473,1.215-1.116c0.024-0.64-0.443-1.182-1.126-1.205
	c-1.004-0.034-2.011-0.033-3.016-0.001c-0.679,0.021-1.158,0.563-1.14,1.196c0.019,0.64,0.518,1.112,1.207,1.125
	C7.381,15.899,7.853,15.892,8.323,15.892z"/>
<path fill="#0037A4" d="M1,3.021c0.062-0.209,0.116-0.42,0.187-0.627C1.675,0.958,2.98,0.044,4.603,0.005
	c0.431-0.011,0.862-0.002,1.293-0.002c8.125,0,16.25-0.001,24.373,0.001c1.762,0,3.066,0.858,3.603,2.347
	c0.194,0.537,0.215,1.089,0.207,1.649c-0.002,0.146-0.052,0.216-0.204,0.208c-0.091-0.005-0.184,0-0.274,0
	c-10.724,0-21.447,0-32.171-0.001C1.286,4.208,1.144,4.195,1,4.189C1,3.8,1,3.411,1,3.021z"/>
<path fill="#0037A4" d="M1,6.526c0.182,0.007,0.364,0.021,0.546,0.021c10.667,0.001,21.334,0,32.002,0.002
	c0.609,0,0.523-0.063,0.528,0.508c0.005,0.505-0.009,1.012,0.005,1.518c0.007,0.229-0.047,0.348-0.299,0.312
	c-0.09-0.012-0.183-0.002-0.274-0.002c-10.667,0-21.334,0-32.002-0.001C1.338,8.884,1.168,8.871,1,8.863C1,8.084,1,7.305,1,6.526z"
	/>
<path fill="#0037A4" d="M41.133,23.874c-0.002,3.896-3.209,7.082-7.131,7.085c-3.918,0.002-7.132-3.188-7.135-7.08
	c-0.004-3.926,3.199-7.1,7.148-7.091C37.952,16.797,41.133,19.966,41.133,23.874z M33.767,26.4c0.348,0.006,0.632-0.135,0.874-0.373
	c0.914-0.91,1.833-1.813,2.741-2.729c0.497-0.502,0.505-1.205,0.042-1.674c-0.475-0.48-1.189-0.469-1.713,0.039
	c-0.44,0.426-0.869,0.862-1.305,1.293c-0.204,0.199-0.397,0.522-0.627,0.553c-0.247,0.032-0.416-0.34-0.627-0.527
	c-0.505-0.449-1.203-0.457-1.66-0.008c-0.465,0.456-0.463,1.183,0.018,1.677c0.465,0.476,0.939,0.939,1.412,1.405
	C33.154,26.285,33.436,26.406,33.767,26.4z"/>
<path fill="#FF008A" d="M0,11.199c0.182,0.006,0.364,0.019,0.546,0.019c10.672,0.001,21.342,0,32.014,0.002
	c0.598,0,0.513-0.068,0.516,0.519c0.006,0.778-0.01,1.558,0.008,2.336c0.005,0.271-0.045,0.378-0.355,0.389
	c-4.455,0.158-8.06,3.159-9.014,7.488c-0.143,0.647-0.225,1.307-0.193,1.97c0.016,0.309-0.074,0.389-0.384,0.389
	c-3.331-0.012-6.661-0.007-9.992-0.007c-3.096,0-6.191,0-9.286,0c-2.077,0-3.281-0.923-3.813-2.921
	C0.041,21.361,0.016,21.344,0,21.324C0,17.949,0,14.575,0,11.199z M9.209,19.631c1.071,0,2.143,0.003,3.214-0.002
	c0.77-0.002,1.293-0.477,1.292-1.158c0-0.674-0.53-1.171-1.292-1.173c-2.143-0.007-4.285-0.007-6.427,0
	c-0.763,0.003-1.292,0.497-1.292,1.173c-0.001,0.682,0.524,1.156,1.292,1.16C7.067,19.634,8.138,19.631,9.209,19.631z M7.323,15.892
	c0.483,0,0.966,0.006,1.449-0.001c0.694-0.012,1.189-0.473,1.215-1.116c0.024-0.64-0.443-1.182-1.126-1.205
	c-1.004-0.034-2.011-0.033-3.016-0.001c-0.679,0.021-1.158,0.563-1.14,1.196c0.019,0.64,0.518,1.112,1.207,1.125
	C6.381,15.899,6.853,15.892,7.323,15.892z"/>
<path fill="#FF008A" d="M0,3.021c0.062-0.209,0.116-0.42,0.187-0.627C0.675,0.958,1.98,0.044,3.603,0.005
	c0.431-0.011,0.862-0.002,1.293-0.002c8.125,0,16.25-0.001,24.373,0.001c1.762,0,3.066,0.858,3.603,2.347
	c0.194,0.537,0.215,1.089,0.207,1.649c-0.002,0.146-0.052,0.216-0.204,0.208c-0.091-0.005-0.184,0-0.274,0
	c-10.724,0-21.447,0-32.171-0.001C0.286,4.208,0.144,4.195,0,4.189C0,3.8,0,3.411,0,3.021z"/>
<path fill="#FF008A" d="M0,6.526c0.182,0.007,0.364,0.021,0.546,0.021c10.667,0.001,21.334,0,32.002,0.002
	c0.609,0,0.523-0.063,0.528,0.508c0.005,0.505-0.009,1.012,0.005,1.518c0.007,0.229-0.047,0.348-0.299,0.312
	c-0.09-0.012-0.183-0.002-0.274-0.002c-10.667,0-21.334,0-32.002-0.001C0.338,8.884,0.168,8.871,0,8.863C0,8.084,0,7.305,0,6.526z"
	/>
<path fill="#FF008A" d="M40.133,23.874c-0.002,3.896-3.209,7.082-7.131,7.085c-3.918,0.002-7.132-3.188-7.135-7.08
	c-0.004-3.926,3.199-7.1,7.148-7.091C36.952,16.797,40.133,19.966,40.133,23.874z M32.767,26.4c0.348,0.006,0.632-0.135,0.874-0.373
	c0.914-0.91,1.833-1.813,2.741-2.729c0.497-0.502,0.505-1.205,0.042-1.674c-0.475-0.48-1.189-0.469-1.713,0.039
	c-0.44,0.426-0.869,0.862-1.305,1.293c-0.204,0.199-0.397,0.522-0.627,0.553c-0.247,0.032-0.416-0.34-0.627-0.527
	c-0.505-0.449-1.203-0.457-1.66-0.008c-0.465,0.456-0.463,1.183,0.018,1.677c0.465,0.476,0.939,0.939,1.412,1.405
	C32.154,26.285,32.436,26.406,32.767,26.4z"/>
</svg>
