<svg id="_7" data-name="7" xmlns="http://www.w3.org/2000/svg" width="58.707" height="34.945" viewBox="0 0 58.707 34.945">
  <path id="Path_124" data-name="Path 124" d="M5.449,0H53.234a5.47,5.47,0,0,1,5.472,5.472V23.713a5.47,5.47,0,0,1-5.472,5.472H36.1l2.352,5.76-10.345-5.76H5.473A5.47,5.47,0,0,1,0,23.713V5.472A5.449,5.449,0,0,1,5.449,0Z" transform="translate(0)" fill="#aa4296"/>
  <path id="Path_125" data-name="Path 125" d="M13.2,15.868a1.92,1.92,0,0,1,1.5-.74,1.743,1.743,0,0,1,2.076,1.718q1.11,7.482,2.41,12.672l5.226-9.951a2.266,2.266,0,0,1,1.79-1.432c1.05-.072,1.694.6,1.957,2A44.6,44.6,0,0,0,30.428,28.3q.931-9.092,3.15-13.125a1.833,1.833,0,0,1,1.575-1.05,2.074,2.074,0,0,1,1.5.477,1.869,1.869,0,0,1,.74,1.36,2.072,2.072,0,0,1-.238,1.145c-.931,1.718-1.695,4.606-2.315,8.615a44.463,44.463,0,0,0-.668,9.093,2.832,2.832,0,0,1-.286,1.575,1.538,1.538,0,0,1-1.265.859,2.4,2.4,0,0,1-1.885-.883q-3.329-3.4-5.274-10.166-2.327,4.582-3.437,6.873c-1.408,2.7-2.6,4.081-3.6,4.153-.644.048-1.193-.5-1.67-1.647q-1.826-4.69-3.937-18.113a2.032,2.032,0,0,1,.382-1.6Zm51.285,3.747a5.5,5.5,0,0,0-3.818-2.768,6.269,6.269,0,0,0-1.289-.143c-2.291,0-4.152,1.193-5.608,3.58a12.643,12.643,0,0,0-1.861,6.73,9.241,9.241,0,0,0,1.145,4.725,5.5,5.5,0,0,0,3.818,2.768,6.253,6.253,0,0,0,1.289.143c2.315,0,4.176-1.193,5.608-3.58a12.789,12.789,0,0,0,1.861-6.754A8.807,8.807,0,0,0,64.482,19.614Zm-3.007,6.61a6.312,6.312,0,0,1-1.814,3.532,2.294,2.294,0,0,1-1.933.764c-.573-.119-1.05-.62-1.408-1.551a6.051,6.051,0,0,1-.43-2.172,8.3,8.3,0,0,1,.167-1.742,7.719,7.719,0,0,1,1.265-2.84c.788-1.17,1.623-1.647,2.482-1.48.573.119,1.05.621,1.408,1.551a6.056,6.056,0,0,1,.43,2.172,8.376,8.376,0,0,1-.167,1.766Zm-11.932-6.61a5.546,5.546,0,0,0-3.818-2.768,6.267,6.267,0,0,0-1.289-.143c-2.291,0-4.152,1.193-5.608,3.58a12.645,12.645,0,0,0-1.861,6.73,9.241,9.241,0,0,0,1.145,4.725,5.5,5.5,0,0,0,3.818,2.768,6.254,6.254,0,0,0,1.289.143c2.315,0,4.176-1.193,5.608-3.58a12.787,12.787,0,0,0,1.861-6.754A9.029,9.029,0,0,0,49.543,19.614Zm-3.031,6.61A6.313,6.313,0,0,1,44.7,29.757a2.294,2.294,0,0,1-1.933.764c-.573-.119-1.05-.62-1.408-1.551a6.06,6.06,0,0,1-.429-2.172,8.3,8.3,0,0,1,.167-1.742,7.716,7.716,0,0,1,1.265-2.84c.787-1.17,1.623-1.647,2.482-1.48.573.119,1.05.621,1.408,1.551a6.051,6.051,0,0,1,.43,2.172,7.041,7.041,0,0,1-.167,1.766Z" transform="translate(-9.855 -10.88)" fill="#f8f8f8"/>
</svg>
