<svg id="calendar_2_" data-name="calendar (2)" xmlns="http://www.w3.org/2000/svg" width="48.333" height="47.479" viewBox="0 0 48.333 47.479">
  <g id="_x31_5_38_" transform="translate(0 0)">
    <g id="Group_12727" data-name="Group 12727" transform="translate(0 0)">
      <path id="Path_31213" data-name="Path 31213" d="M101.318,15.782h.691a1.9,1.9,0,0,0,1.9-1.9V6.665a1.9,1.9,0,0,0-1.9-1.9h-.691a1.9,1.9,0,0,0-1.9,1.9v7.215A1.9,1.9,0,0,0,101.318,15.782Z" transform="translate(-89.507 -4.715)" fill="#024ff3"/>
      <path id="Path_31214" data-name="Path 31214" d="M346.184,15.309h.692a1.9,1.9,0,0,0,1.9-1.9V6.192a1.9,1.9,0,0,0-1.9-1.9h-.692a1.9,1.9,0,0,0-1.9,1.9v7.215A1.9,1.9,0,0,0,346.184,15.309Z" transform="translate(-309.968 -4.289)" fill="#024ff3"/>
      <path id="Path_31215" data-name="Path 31215" d="M45.24,43.558H40.357v5.7c0,1.9-1.547,2.951-3.449,2.951h-.691a3.453,3.453,0,0,1-3.449-3.449v-5.2H15.952v5.251A3.453,3.453,0,0,1,12.5,52.258h-.691a3.453,3.453,0,0,1-3.449-3.449V43.558H3.093A3.1,3.1,0,0,0,0,46.651V84.029a3.1,3.1,0,0,0,3.093,3.093H45.24a3.1,3.1,0,0,0,3.093-3.093V46.651A3.1,3.1,0,0,0,45.24,43.558Zm0,40.471H3.093V55.8H45.241l0,28.227Z" transform="translate(0 -39.644)" fill="#024ff3"/>
      <path id="Path_31216" data-name="Path 31216" d="M254.9,210.762h5.554a.4.4,0,0,0,.4-.4v-4.809a.4.4,0,0,0-.4-.4H254.9a.4.4,0,0,0-.4.4v4.809A.4.4,0,0,0,254.9,210.762Z" transform="translate(-229.133 -185.135)" fill="#024ff3"/>
      <path id="Path_31217" data-name="Path 31217" d="M345.842,210.762H351.4a.4.4,0,0,0,.4-.4v-4.809a.4.4,0,0,0-.4-.4h-5.554a.4.4,0,0,0-.4.4v4.809A.4.4,0,0,0,345.842,210.762Z" transform="translate(-311.014 -185.135)" fill="#024ff3"/>
      <path id="Path_31218" data-name="Path 31218" d="M73.01,289.761h5.554a.4.4,0,0,0,.4-.4v-4.809a.4.4,0,0,0-.4-.4H73.01a.4.4,0,0,0-.4.4v4.809A.4.4,0,0,0,73.01,289.761Z" transform="translate(-65.374 -256.261)" fill="#024ff3"/>
      <path id="Path_31219" data-name="Path 31219" d="M163.954,289.761h5.554a.4.4,0,0,0,.4-.4v-4.809a.4.4,0,0,0-.4-.4h-5.554a.4.4,0,0,0-.4.4v4.809A.4.4,0,0,0,163.954,289.761Z" transform="translate(-147.254 -256.261)" fill="#024ff3"/>
      <path id="Path_31220" data-name="Path 31220" d="M254.9,289.761h5.554a.4.4,0,0,0,.4-.4v-4.809a.4.4,0,0,0-.4-.4H254.9a.4.4,0,0,0-.4.4v4.809A.4.4,0,0,0,254.9,289.761Z" transform="translate(-229.134 -256.261)" fill="#024ff3"/>
      <path id="Path_31221" data-name="Path 31221" d="M345.842,289.761H351.4a.4.4,0,0,0,.4-.4v-4.809a.4.4,0,0,0-.4-.4h-5.554a.4.4,0,0,0-.4.4v4.809A.4.4,0,0,0,345.842,289.761Z" transform="translate(-311.014 -256.261)" fill="#024ff3"/>
      <path id="Path_31222" data-name="Path 31222" d="M78.565,363.154H73.011a.4.4,0,0,0-.4.4v4.809a.4.4,0,0,0,.4.4h5.554a.4.4,0,0,0,.4-.4v-4.809A.4.4,0,0,0,78.565,363.154Z" transform="translate(-65.375 -327.387)" fill="#024ff3"/>
      <path id="Path_31223" data-name="Path 31223" d="M169.509,363.154h-5.554a.4.4,0,0,0-.4.4v4.809a.4.4,0,0,0,.4.4h5.554a.4.4,0,0,0,.4-.4v-4.809A.4.4,0,0,0,169.509,363.154Z" transform="translate(-147.255 -327.387)" fill="#024ff3"/>
      <path id="Path_31224" data-name="Path 31224" d="M260.453,363.154H254.9a.4.4,0,0,0-.4.4v4.809a.4.4,0,0,0,.4.4h5.554a.4.4,0,0,0,.4-.4v-4.809A.4.4,0,0,0,260.453,363.154Z" transform="translate(-229.135 -327.387)" fill="#024ff3"/>
      <path id="Path_31225" data-name="Path 31225" d="M351.4,363.154h-5.554a.4.4,0,0,0-.4.4v4.809a.4.4,0,0,0,.4.4H351.4a.4.4,0,0,0,.4-.4v-4.809A.4.4,0,0,0,351.4,363.154Z" transform="translate(-311.014 -327.387)" fill="#024ff3"/>
    </g>
  </g>
</svg>
