<?xml version="1.0" encoding="utf-8"?>
<!-- Generator: Adobe Illustrator 16.0.0, SVG Export Plug-In . SVG Version: 6.00 Build 0)  -->
<!DOCTYPE svg PUBLIC "-//W3C//DTD SVG 1.1//EN" "http://www.w3.org/Graphics/SVG/1.1/DTD/svg11.dtd">
<svg version="1.1" id="Layer_1" xmlns="http://www.w3.org/2000/svg" xmlns:xlink="http://www.w3.org/1999/xlink" x="0px" y="0px"
	 width="120px" height="120px" viewBox="0 0 120 120" enable-background="new 0 0 120 120" xml:space="preserve">
<g>
	<path fill="#86C440" d="M20.476,34.798c-3.966,0-7.186,3.219-7.186,7.187v28.747c0,3.964,3.22,7.186,7.186,7.186
		c3.967,0,7.187-3.222,7.187-7.186V41.984C27.662,38.014,24.443,34.798,20.476,34.798z"/>
	<path fill="#86C440" d="M99.524,34.798c-3.965,0-7.187,3.219-7.187,7.187v28.747c0,3.964,3.222,7.186,7.187,7.186
		s7.186-3.222,7.186-7.186V41.984C106.71,38.014,103.489,34.798,99.524,34.798z"/>
	<path fill="#86C440" d="M31.255,92.289h7.187v17.966c0,3.965,3.219,7.187,7.187,7.187c3.966,0,7.186-3.222,7.186-7.187V92.289
		h14.373v17.966c0,3.965,3.221,7.187,7.186,7.187s7.187-3.222,7.187-7.187V92.289h7.186V38.391H31.255V92.289z"/>
	<path fill="#86C440" d="M76.969,11.628l3.691-6.391c0.498-0.863,0.203-1.958-0.659-2.458c-0.856-0.498-1.958-0.205-2.457,0.662
		l-3.596,6.23C69.818,7.373,65.066,6.053,60,6.053c-5.063,0-9.813,1.319-13.948,3.621l-3.6-6.237c-0.5-0.86-1.593-1.152-2.458-0.658
		c-0.856,0.497-1.15,1.592-0.658,2.455l3.693,6.395c-7.125,5.232-11.774,13.648-11.774,23.169h57.489
		C88.744,25.276,84.096,16.86,76.969,11.628z M49.221,24.019c-1.988,0-3.593-1.605-3.593-3.593s1.605-3.593,3.593-3.593
		s3.593,1.605,3.593,3.593S51.208,24.019,49.221,24.019z M70.779,24.019c-1.986,0-3.593-1.605-3.593-3.593s1.606-3.593,3.593-3.593
		s3.593,1.605,3.593,3.593S72.766,24.019,70.779,24.019z"/>
</g>
</svg>
