<?xml version="1.0" encoding="utf-8"?>
<!-- Generator: Adobe Illustrator 16.0.0, SVG Export Plug-In . SVG Version: 6.00 Build 0)  -->
<!DOCTYPE svg PUBLIC "-//W3C//DTD SVG 1.1//EN" "http://www.w3.org/Graphics/SVG/1.1/DTD/svg11.dtd">
<svg version="1.1" id="Layer_1" xmlns="http://www.w3.org/2000/svg" xmlns:xlink="http://www.w3.org/1999/xlink" x="0px" y="0px"
	 width="38px" height="38px" viewBox="0 0 38 38" enable-background="new 0 0 38 38" xml:space="preserve">
<path fill="#0037A4" d="M22.91,19.56l-3.353,3.353l-3.353-3.353l3.353-3.353L22.91,19.56z M19.558,9.501l3.554,3.554l4.191-4.191
	l-7.745-7.745l-7.745,7.745l4.191,4.191L19.558,9.501z M9.499,19.56l3.554-3.554l-4.191-4.191L1.117,19.56l7.745,7.745l4.191-4.191
	L9.499,19.56z M29.616,19.56l-3.554,3.554l4.191,4.191l7.744-7.745l-7.744-7.745l-4.191,4.191L29.616,19.56z M19.558,29.618
	l-3.554-3.554l-4.191,4.19L19.558,38l7.745-7.745l-4.191-4.19L19.558,29.618z"/>
<path fill="#FF008A" d="M21.793,18.44l-3.353,3.353l-3.353-3.353l3.353-3.353L21.793,18.44z M18.44,8.382l3.554,3.554l4.191-4.191
	L18.44,0l-7.745,7.745l4.191,4.191L18.44,8.382z M8.382,18.44l3.554-3.554l-4.191-4.191L0,18.44l7.745,7.745l4.191-4.191
	L8.382,18.44z M28.499,18.44l-3.554,3.554l4.191,4.191l7.744-7.745l-7.744-7.745l-4.191,4.191L28.499,18.44z M18.44,28.499
	l-3.554-3.554l-4.191,4.19l7.745,7.745l7.745-7.745l-4.191-4.19L18.44,28.499z"/>
</svg>
