<?xml version="1.0" encoding="utf-8"?>
<!-- Generator: Adobe Illustrator 16.0.0, SVG Export Plug-In . SVG Version: 6.00 Build 0)  -->
<!DOCTYPE svg PUBLIC "-//W3C//DTD SVG 1.1//EN" "http://www.w3.org/Graphics/SVG/1.1/DTD/svg11.dtd">
<svg version="1.1" id="Layer_1" xmlns="http://www.w3.org/2000/svg" xmlns:xlink="http://www.w3.org/1999/xlink" x="0px" y="0px"
	 width="120px" height="120px" viewBox="0 0 120 120" enable-background="new 0 0 120 120" xml:space="preserve">
<path fill="#5B82C2" d="M84.708,60.5c0,13.922-11.286,25.208-25.208,25.208c-13.922,0-25.208-11.286-25.208-25.208
	c0-13.922,11.286-25.208,25.208-25.208C73.422,35.292,84.708,46.578,84.708,60.5z"/>
<path fill="#5B82C2" d="M104.188,60.5c0,24.68-20.008,44.688-44.688,44.688S14.813,85.18,14.813,60.5S34.82,15.813,59.5,15.813
	c5.999,0,11.721,1.182,16.949,3.326c0.801,0.329,1.733,0.054,2.199-0.678l3.721-5.845c0.559-0.881,0.229-2.056-0.73-2.478
	C74.866,7.156,67.378,5.5,59.5,5.5c-30.375,0-55,24.625-55,55c0,30.375,24.625,55,55,55c30.375,0,55-24.625,55-55
	c0-7.427-1.474-14.51-4.14-20.973c-0.386-0.933-1.494-1.308-2.384-0.833l-6.059,3.231c-0.803,0.429-1.139,1.402-0.807,2.249
	C103.097,49.232,104.188,54.738,104.188,60.5z"/>
<path fill="#5B82C2" d="M105.333,28.417c0,6.329-5.129,11.458-11.458,11.458s-11.458-5.13-11.458-11.458
	c0-6.328,5.129-11.458,11.458-11.458S105.333,22.088,105.333,28.417z"/>
</svg>
