<?xml version="1.0" encoding="utf-8"?>
<!-- Generator: Adobe Illustrator 16.0.0, SVG Export Plug-In . SVG Version: 6.00 Build 0)  -->
<!DOCTYPE svg PUBLIC "-//W3C//DTD SVG 1.1//EN" "http://www.w3.org/Graphics/SVG/1.1/DTD/svg11.dtd">
<svg version="1.1" id="Layer_1" xmlns="http://www.w3.org/2000/svg" xmlns:xlink="http://www.w3.org/1999/xlink" x="0px" y="0px"
	 width="120px" height="120px" viewBox="0 0 120 120" enable-background="new 0 0 120 120" xml:space="preserve">
<linearGradient id="SVGID_1_" gradientUnits="userSpaceOnUse" x1="306.5" y1="-273.5005" x2="306.5" y2="-329.5012" gradientTransform="matrix(1 0 0 -1 -246 -214)">
	<stop  offset="0" style="stop-color:#FFFFFF"/>
	<stop  offset="1" style="stop-color:#E9E5E4"/>
</linearGradient>
<path fill="url(#SVGID_1_)" d="M90.521,3.5H30.479C16.131,3.5,4.5,15.131,4.5,29.479v60.042c0,14.348,11.631,25.979,25.979,25.979
	h60.042c14.348,0,25.979-11.632,25.979-25.979V29.479C116.5,15.131,104.868,3.5,90.521,3.5z"/>
<linearGradient id="SVGID_2_" gradientUnits="userSpaceOnUse" x1="267.5625" y1="-248.4712" x2="267.5625" y2="-290.1306" gradientTransform="matrix(1 0 0 -1 -246 -214)">
	<stop  offset="0" style="stop-color:#3C57A7"/>
	<stop  offset="1" style="stop-color:#12ADE4"/>
</linearGradient>
<path fill="url(#SVGID_2_)" d="M22.905,82.326h-2.634V47.123h2.634V82.326z M21.55,38.493c-1.111,0-2.029-0.881-2.029-1.992
	c0-1.144,0.914-2.03,2.029-2.03c1.144,0,2.054,0.881,2.054,2.03C23.604,37.612,22.694,38.493,21.55,38.493z"/>
<linearGradient id="SVGID_3_" gradientUnits="userSpaceOnUse" x1="276.7695" y1="-255.8096" x2="305.8123" y2="-283.5794" gradientTransform="matrix(1 0 0 -1 -246 -214)">
	<stop  offset="0" style="stop-color:#3E60AD"/>
	<stop  offset="0.3745" style="stop-color:#3F9ED8"/>
	<stop  offset="0.7171" style="stop-color:#16B5B6"/>
	<stop  offset="1" style="stop-color:#8AC644"/>
</linearGradient>
<path fill="url(#SVGID_3_)" d="M48.492,83.014c-12.882,0-21.02-9.38-21.02-24.292c0-14.836,8.175-24.253,21.02-24.253
	c12.844,0,21.015,9.417,21.015,24.253C69.507,73.634,61.369,83.014,48.492,83.014z M48.492,36.892
	c-11.213,0-18.372,8.466-18.372,21.831c0,13.375,7.192,21.872,18.372,21.872c11.213,0,18.371-8.496,18.371-21.872
	C66.863,45.354,59.705,36.892,48.492,36.892z"/>
<linearGradient id="SVGID_4_" gradientUnits="userSpaceOnUse" x1="315.375" y1="-257.5801" x2="350.9658" y2="-286.781" gradientTransform="matrix(1 0 0 -1 -246 -214)">
	<stop  offset="0" style="stop-color:#25BAA6"/>
	<stop  offset="0.4988" style="stop-color:#A2CD3A"/>
	<stop  offset="1" style="stop-color:#D6E040"/>
</linearGradient>
<path fill="url(#SVGID_4_)" d="M88.268,83.014c-9.67,0-16.603-5.462-16.997-13.271h2.584c0.392,6.402,6.407,10.886,14.61,10.886
	c8.008,0,13.594-4.547,13.594-10.688c0-4.941-3.333-7.781-11.239-9.775l-5.589-1.374c-8.724-2.227-12.686-5.756-12.686-11.667
	c0-7.355,6.868-12.652,15.466-12.652c8.889,0,15.524,5.232,15.821,12.16h-2.584c-0.361-5.653-5.884-9.773-13.304-9.773
	c-7.097,0-12.75,4.252-12.75,10.2c0,4.712,3.464,7.421,11.044,9.315l5.266,1.34c9.116,2.254,13.204,5.756,13.204,12.029
	C104.708,77.552,98.139,83.014,88.268,83.014L88.268,83.014z"/>
</svg>
