<?xml version="1.0" encoding="utf-8"?>
<!-- Generator: Adobe Illustrator 16.0.0, SVG Export Plug-In . SVG Version: 6.00 Build 0)  -->
<!DOCTYPE svg PUBLIC "-//W3C//DTD SVG 1.1//EN" "http://www.w3.org/Graphics/SVG/1.1/DTD/svg11.dtd">
<svg version="1.1" id="Layer_1" xmlns="http://www.w3.org/2000/svg" xmlns:xlink="http://www.w3.org/1999/xlink" x="0px" y="0px"
	 width="120px" height="120px" viewBox="0 0 120 120" enable-background="new 0 0 120 120" xml:space="preserve">
<g>
	<defs>
		<rect id="SVGID_1_" x="5.75" y="5.75" width="109.5" height="109.5"/>
	</defs>
	<clipPath id="SVGID_2_">
		<use xlink:href="#SVGID_1_"  overflow="visible"/>
	</clipPath>
	<g clip-path="url(#SVGID_2_)">
		<path fill="#DA3C26" d="M59.96,26.04c-5.059,3.558-10.794,7.592-13.867,14.265c-5.336,11.642,10.921,24.34,11.616,24.875
			c0.161,0.124,0.355,0.187,0.547,0.187c0.205,0,0.409-0.069,0.576-0.209c0.323-0.271,0.414-0.729,0.221-1.103
			c-0.059-0.112-5.895-11.448-5.678-19.58c0.077-2.833,4.041-6.045,8.236-9.446c3.845-3.117,8.2-6.647,10.75-10.778
			c5.595-9.093-0.625-18.034-0.688-18.123c-0.246-0.347-0.704-0.473-1.093-0.302c-0.389,0.172-0.606,0.593-0.517,1.01
			c0.012,0.06,1.223,5.971-2.144,12.063C66.536,21.416,63.487,23.559,59.96,26.04z"/>
		<path fill="#DA3C26" d="M81.279,30.049c0.356-0.268,0.462-0.759,0.246-1.15s-0.688-0.564-1.105-0.406
			c-0.858,0.327-21.047,8.109-21.047,17.512c0,6.481,2.768,9.906,4.79,12.406c0.794,0.981,1.479,1.828,1.704,2.551
			c0.635,2.083-0.869,5.85-1.504,7.125c-0.182,0.367-0.092,0.812,0.217,1.08c0.17,0.146,0.379,0.217,0.588,0.217
			c0.18,0,0.357-0.051,0.513-0.159c0.346-0.241,8.483-5.995,7.023-12.925c-0.543-2.635-1.837-4.56-2.98-6.258
			c-1.769-2.631-3.047-4.533-1.106-8.043C70.888,37.903,81.176,30.127,81.279,30.049z"/>
		<path fill="#7D9CD0" d="M28.72,69.533c-0.347,1.035-0.184,2.064,0.472,2.974c2.188,3.038,9.94,4.712,21.829,4.712
			c0.001,0,0.001,0,0.002,0c1.611,0,3.312-0.032,5.053-0.095c19.009-0.679,26.058-6.603,26.348-6.854
			c0.317-0.274,0.402-0.729,0.206-1.1c-0.199-0.37-0.623-0.555-1.029-0.442c-6.694,1.827-19.195,2.476-27.864,2.476
			c-9.702,0-14.643-0.699-15.852-1.215c0.62-0.853,4.449-2.373,9.192-3.307c0.454-0.09,0.766-0.509,0.72-0.968
			c-0.045-0.461-0.431-0.811-0.894-0.811C44.122,64.903,30.177,65.127,28.72,69.533z"/>
		<path fill="#7D9CD0" d="M92.324,63.435c-3.92,0-7.639,1.964-7.795,2.049c-0.361,0.193-0.546,0.609-0.446,1.008
			c0.099,0.401,0.458,0.68,0.869,0.681c0.083,0,8.363,0.068,9.111,4.799c0.665,4.08-7.831,10.693-11.163,12.896
			c-0.36,0.237-0.499,0.699-0.331,1.097c0.141,0.338,0.47,0.55,0.824,0.55c0.063,0,0.126-0.007,0.188-0.021
			c0.791-0.17,19.335-4.255,17.375-15.052C99.76,64.825,95.602,63.435,92.324,63.435z"/>
		<path fill="#7D9CD0" d="M79.608,83.547c0.065-0.347-0.081-0.697-0.368-0.899l-4.445-3.115c-0.217-0.15-0.492-0.198-0.747-0.131
			c-0.045,0.011-4.694,1.232-11.446,1.983c-2.68,0.3-5.681,0.458-8.68,0.458c-6.749,0-11.162-0.791-11.804-1.375
			c-0.086-0.163-0.059-0.237-0.043-0.278c0.117-0.324,0.743-0.71,1.146-0.862c0.445-0.166,0.686-0.648,0.547-1.104
			c-0.139-0.455-0.607-0.723-1.069-0.611c-4.461,1.076-6.641,2.582-6.482,4.475c0.282,3.354,8.051,5.075,14.621,5.53
			c0.945,0.064,1.965,0.099,3.036,0.099c0.001,0,0.001,0,0.002,0c10.923,0,24.926-3.429,25.066-3.463
			C79.283,84.17,79.543,83.893,79.608,83.547z"/>
		<path fill="#7D9CD0" d="M46.084,90.747c0.337-0.221,0.486-0.637,0.367-1.019c-0.119-0.384-0.478-0.637-0.88-0.632
			c-0.598,0.018-5.849,0.253-6.216,3.597c-0.111,1,0.175,1.913,0.85,2.713c1.886,2.235,6.976,3.563,15.557,4.06
			c1.015,0.062,2.046,0.092,3.065,0.092c10.91,0,18.26-3.416,18.566-3.561c0.297-0.141,0.494-0.435,0.513-0.764
			c0.019-0.33-0.147-0.642-0.43-0.813l-5.618-3.432c-0.195-0.119-0.428-0.158-0.651-0.112c-0.034,0.007-3.602,0.747-8.988,1.479
			c-1.018,0.138-2.293,0.209-3.791,0.209c-5.379,0-11.362-0.88-12.509-1.455C45.902,91.002,45.923,90.866,46.084,90.747z"/>
		<path fill="#7D9CD0" d="M53.74,109.873c24.991-0.021,38.405-4.466,40.988-7.264c0.915-0.989,1.014-1.926,0.938-2.537
			c-0.193-1.506-1.565-2.428-1.722-2.527c-0.373-0.241-0.877-0.179-1.171,0.158c-0.292,0.339-0.299,0.831-0.005,1.169
			c0.158,0.202,0.249,0.542-0.212,1.003c-1.032,0.965-11.451,3.895-28.798,4.773c-2.376,0.124-4.87,0.187-7.408,0.187
			c-15.532,0-26.898-2.129-28.391-3.367c0.575-0.825,4.596-2.146,8.871-2.893c0.482-0.085,0.807-0.54,0.733-1.021
			c-0.075-0.484-0.52-0.815-1.007-0.754c-0.121,0.017-0.53,0.041-1.004,0.071c-7.055,0.431-15.208,1.39-15.634,5.024
			c-0.129,1.109,0.2,2.114,0.979,2.99C22.803,107.024,28.28,109.873,53.74,109.873C53.74,109.873,53.74,109.873,53.74,109.873z"/>
		<path fill="#7D9CD0" d="M99.638,103.397c-0.354-0.165-0.771-0.08-1.034,0.203c-0.035,0.039-3.793,3.969-15.091,6.275
			c-4.325,0.867-12.443,1.308-24.129,1.308c-11.708,0-22.849-0.462-22.96-0.466c-0.465-0.023-0.863,0.316-0.927,0.774
			c-0.063,0.456,0.232,0.89,0.681,0.994c0.116,0.027,11.792,2.764,27.755,2.764c7.659,0,15.108-0.621,22.147-1.849
			c13.122-2.3,14.041-8.808,14.074-9.084C100.198,103.932,99.991,103.561,99.638,103.397z"/>
	</g>
</g>
</svg>
