<?xml version="1.0" encoding="utf-8"?>
<!-- Generator: Adobe Illustrator 16.0.0, SVG Export Plug-In . SVG Version: 6.00 Build 0)  -->
<!DOCTYPE svg PUBLIC "-//W3C//DTD SVG 1.1//EN" "http://www.w3.org/Graphics/SVG/1.1/DTD/svg11.dtd">
<svg version="1.1" id="Layer_1" xmlns="http://www.w3.org/2000/svg" xmlns:xlink="http://www.w3.org/1999/xlink" x="0px" y="0px"
	 width="350px" height="400px" viewBox="0 0 350 400" enable-background="new 0 0 350 400" xml:space="preserve">
<path fill="#20409A" d="M194.08,111.31c-4.922,1.461-11.88,2.588-20.777,3.388c0.401-19.845,5.575-36.961,15.602-51.327
	c9.842-14.273,26.468-24.135,49.906-29.583c0.146,0.382,0.334,1.146,0.515,2.206c0.182,1.061,0.363,1.788,0.511,2.188
	c0,0.527,0.035,1.201,0.108,2c0.037,0.807,0.072,1.461,0.072,2.012c0,8.122-1.933,17.166-5.794,27.154
	c-3.976,9.988-10.176,19.177-18.559,27.565C208.481,104.091,201.263,108.903,194.08,111.31z M283.579,251.341
	c-9.183-13.165-13.777-28.04-13.777-44.55c0-15.056,4.305-28.839,12.978-41.342c4.666-6.819,12.25-14.657,22.783-23.584
	c-6.927-8.534-13.85-15.165-20.776-19.978c-12.542-8.643-26.725-12.983-42.579-12.983c-9.445,0-20.967,2.26-34.526,6.782
	c-13.048,4.558-22.602,6.795-28.583,6.795c-4.521,0-13.705-1.982-27.561-5.988c-13.995-4-25.771-5.983-35.36-5.983
	c-22.93,0-41.816,9.583-56.763,28.76c-15.055,19.433-22.566,44.369-22.566,74.699c0,32.27,9.807,65.732,29.385,100.511
	c19.833,34.488,39.883,51.732,60.115,51.732c6.782,0,15.602-2.262,26.36-6.782c10.789-4.405,20.268-6.601,28.396-6.601
	c8.645,0,18.705,2.133,30.149,6.382c12.104,4.268,21.438,6.396,27.967,6.396c17.062,0,34.154-13.044,51.361-39.15
	c11.159-16.644,19.359-33.281,24.572-49.926C303.266,272.919,292.769,264.535,283.579,251.341z"/>
</svg>
