<?xml version="1.0" encoding="utf-8"?>
<!-- Generator: Adobe Illustrator 16.0.0, SVG Export Plug-In . SVG Version: 6.00 Build 0)  -->
<!DOCTYPE svg PUBLIC "-//W3C//DTD SVG 1.1//EN" "http://www.w3.org/Graphics/SVG/1.1/DTD/svg11.dtd">
<svg version="1.1" id="Layer_1" xmlns="http://www.w3.org/2000/svg" xmlns:xlink="http://www.w3.org/1999/xlink" x="0px" y="0px"
	 width="120px" height="120px" viewBox="0 0 120 120" enable-background="new 0 0 120 120" xml:space="preserve">
<g>
	<defs>
		<rect id="SVGID_1_" x="9.704" y="4.445" width="101.796" height="112.109"/>
	</defs>
	<clipPath id="SVGID_2_">
		<use xlink:href="#SVGID_1_"  overflow="visible"/>
	</clipPath>
	<g clip-path="url(#SVGID_2_)">
		<path fill="#8EC74E" d="M56.017,5.869c2.769-1.585,6.374-1.592,9.138,0c13.913,7.861,27.829,15.71,41.74,23.576
			c2.615,1.474,4.367,4.385,4.34,7.399v47.297c0.019,3.138-1.905,6.12-4.664,7.561c-13.866,7.818-27.726,15.646-41.59,23.463
			c-2.826,1.616-6.503,1.49-9.24-0.258c-4.157-2.408-8.322-4.807-12.479-7.215c-0.85-0.506-1.808-0.909-2.408-1.733
			c0.531-0.714,1.479-0.804,2.249-1.115c1.736-0.551,3.33-1.438,4.923-2.297c0.403-0.276,0.896-0.171,1.282,0.076
			c3.556,2.038,7.079,4.136,10.646,6.155c0.761,0.439,1.531-0.145,2.182-0.506c13.607-7.691,27.231-15.354,40.837-23.047
			c0.504-0.243,0.782-0.776,0.74-1.329c0.011-15.603,0.004-31.207,0.007-46.809c0.056-0.626-0.306-1.203-0.872-1.459
			c-13.819-7.782-27.632-15.576-41.446-23.36c-0.239-0.165-0.523-0.253-0.814-0.253c-0.291-0.001-0.574,0.087-0.813,0.251
			c-13.816,7.786-27.625,15.587-41.441,23.369c-0.565,0.256-0.944,0.823-0.876,1.452c0.001,15.602,0,31.207,0,46.81
			c-0.024,0.271,0.035,0.541,0.169,0.775c0.134,0.234,0.337,0.424,0.581,0.539c3.687,2.091,7.379,4.167,11.068,6.249
			c2.079,1.119,4.63,1.785,6.92,0.928c2.021-0.727,3.438-2.787,3.399-4.932c0.019-15.512-0.01-31.025,0.014-46.534
			c-0.05-0.689,0.603-1.258,1.272-1.193c1.772-0.012,3.546-0.024,5.317,0.004c0.739-0.017,1.249,0.725,1.157,1.419
			c-0.007,15.609,0.02,31.219-0.012,46.828c0.005,4.161-1.704,8.686-5.553,10.723c-4.74,2.454-10.6,1.935-15.282-0.421
			c-4.054-2.022-7.923-4.41-11.906-6.579c-2.768-1.432-4.681-4.425-4.662-7.563V36.845c-0.029-3.077,1.791-6.042,4.489-7.493
			C28.293,21.527,42.155,13.696,56.017,5.869z"/>
		<path fill="#8EC74E" d="M68.112,38.631c6.047-0.39,12.521-0.231,17.962,2.748c4.212,2.283,6.548,7.074,6.623,11.754
			c-0.118,0.631-0.777,0.979-1.382,0.936c-1.754-0.003-3.507,0.024-5.263-0.012c-0.743,0.029-1.178-0.657-1.27-1.315
			c-0.504-2.24-1.726-4.457-3.834-5.537c-3.235-1.621-6.987-1.539-10.516-1.505c-2.575,0.137-5.346,0.36-7.527,1.875
			c-1.676,1.147-2.184,3.463-1.586,5.329c0.563,1.339,2.11,1.771,3.375,2.169c7.287,1.906,15.008,1.716,22.157,4.225
			c2.958,1.023,5.853,3.009,6.868,6.109c1.324,4.153,0.743,9.116-2.211,12.451c-2.398,2.742-5.888,4.236-9.366,5.047
			c-4.632,1.032-9.437,1.06-14.14,0.601c-4.421-0.504-9.022-1.666-12.436-4.678c-2.918-2.535-4.344-6.484-4.203-10.295
			c0.034-0.645,0.675-1.093,1.291-1.039c1.767-0.016,3.534-0.021,5.3,0c0.706-0.049,1.229,0.56,1.265,1.227
			c0.326,2.133,1.128,4.372,2.989,5.638c3.59,2.314,8.096,2.158,12.208,2.223c3.405-0.151,7.229-0.196,10.008-2.448
			c1.467-1.284,1.901-3.433,1.505-5.28c-0.428-1.561-2.062-2.288-3.462-2.763c-7.194-2.276-15.004-1.451-22.127-4.024
			c-2.892-1.022-5.689-2.955-6.8-5.925c-1.55-4.206-0.839-9.407,2.424-12.629C59.15,40.307,63.743,39.072,68.112,38.631
			L68.112,38.631z"/>
	</g>
</g>
</svg>
