<?xml version="1.0" encoding="utf-8"?>
<!-- Generator: Adobe Illustrator 16.0.0, SVG Export Plug-In . SVG Version: 6.00 Build 0)  -->
<!DOCTYPE svg PUBLIC "-//W3C//DTD SVG 1.1//EN" "http://www.w3.org/Graphics/SVG/1.1/DTD/svg11.dtd">
<svg version="1.1" id="Layer_1" xmlns="http://www.w3.org/2000/svg" xmlns:xlink="http://www.w3.org/1999/xlink" x="0px" y="0px"
	 width="120px" height="120px" viewBox="0 0 120 120" enable-background="new 0 0 120 120" xml:space="preserve">
<radialGradient id="SVGID_1_" cx="4.3145" cy="116.1289" r="0.9995" gradientTransform="matrix(74.5333 0 0 -74.5333 -283.8125 8695.6875)" gradientUnits="userSpaceOnUse">
	<stop  offset="0" style="stop-color:#AFB2D5"/>
	<stop  offset="0.3" style="stop-color:#AFB2D5"/>
	<stop  offset="0.75" style="stop-color:#484D8A"/>
	<stop  offset="1" style="stop-color:#484D8A"/>
</radialGradient>
<path fill="url(#SVGID_1_)" d="M3.641,59.5c0,16.489,25.413,29.857,56.759,29.857c31.347,0,56.76-13.368,56.76-29.857
	c0-16.49-25.413-29.858-56.76-29.858C29.053,29.642,3.641,43.01,3.641,59.5z"/>
<path fill="#787BB3" d="M60.402,87.141c30.123,0,54.542-12.375,54.542-27.641c0-15.265-24.419-27.641-54.542-27.641
	S5.859,44.234,5.859,59.5C5.859,74.766,30.279,87.141,60.402,87.141z"/>
<path fill="#010101" d="M34.48,62.926c2.477,0,4.326-0.456,5.496-1.356c1.157-0.892,1.957-2.436,2.376-4.589
	c0.391-2.013,0.242-3.418-0.442-4.177c-0.7-0.774-2.211-1.167-4.495-1.167h-3.958l-2.194,11.291H34.48z M21.534,76.835
	c-0.184,0-0.358-0.082-0.475-0.224c-0.117-0.143-0.165-0.329-0.129-0.51l5.815-29.921c0.057-0.29,0.31-0.499,0.605-0.499h12.534
	c3.939,0,6.871,1.07,8.714,3.18c1.853,2.121,2.425,5.085,1.7,8.811c-0.295,1.518-0.802,2.927-1.507,4.19
	c-0.706,1.264-1.639,2.433-2.774,3.476c-1.358,1.271-2.896,2.193-4.565,2.735c-1.643,0.535-3.753,0.807-6.271,0.807h-5.076
	l-1.449,7.456c-0.056,0.29-0.31,0.499-0.604,0.499H21.534z"/>
<path fill="#FFFFFF" d="M33.963,52.251h3.451c2.755,0,3.712,0.604,4.037,0.965c0.54,0.598,0.642,1.859,0.295,3.647
	c-0.39,2.001-1.112,3.421-2.147,4.218c-1.06,0.815-2.783,1.229-5.12,1.229h-2.471L33.963,52.251z M39.882,45.066H27.348
	c-0.59,0-1.097,0.417-1.209,0.997l-5.816,29.921c-0.07,0.361,0.025,0.734,0.259,1.019s0.583,0.448,0.95,0.448h6.518
	c0.59,0,1.097-0.418,1.209-0.996l1.353-6.959h4.567c2.583,0,4.757-0.281,6.462-0.837c1.753-0.569,3.367-1.536,4.794-2.871
	c1.181-1.087,2.154-2.306,2.891-3.624c0.737-1.32,1.267-2.792,1.574-4.374c0.763-3.922,0.143-7.063-1.841-9.333
	C47.095,46.207,44.007,45.066,39.882,45.066z M30.514,63.543h3.965c2.628,0,4.585-0.495,5.872-1.485
	c1.286-0.991,2.154-2.644,2.604-4.959c0.432-2.224,0.235-3.793-0.589-4.707c-0.825-0.914-2.476-1.372-4.952-1.372h-4.466
	L30.514,63.543z M39.882,46.298c3.771,0,6.521,0.99,8.25,2.969c1.729,1.979,2.25,4.742,1.56,8.289
	c-0.284,1.461-0.764,2.797-1.44,4.007c-0.677,1.211-1.561,2.318-2.653,3.322c-1.301,1.219-2.748,2.086-4.338,2.604
	s-3.618,0.775-6.081,0.775h-5.583l-1.546,7.955h-6.518l5.816-29.921H39.882z"/>
<path fill="#010101" d="M65.242,68.88c-0.185,0-0.359-0.082-0.476-0.224c-0.117-0.143-0.165-0.329-0.13-0.51l2.572-13.239
	c0.245-1.259,0.186-2.163-0.17-2.544c-0.217-0.233-0.867-0.625-2.793-0.625h-4.66l-3.235,16.643c-0.056,0.29-0.31,0.499-0.604,0.499
	H49.28c-0.184,0-0.358-0.082-0.475-0.224c-0.117-0.143-0.165-0.329-0.129-0.51l5.815-29.921c0.057-0.29,0.31-0.499,0.605-0.499
	h6.467c0.184,0,0.357,0.082,0.475,0.224s0.165,0.329,0.13,0.509l-1.403,7.222h5.014c3.819,0,6.409,0.673,7.918,2.059
	c1.537,1.414,2.018,3.673,1.426,6.717l-2.705,13.923c-0.057,0.29-0.311,0.499-0.605,0.499H65.242z"/>
<path fill="#FFFFFF" d="M61.561,37.111h-6.466c-0.59,0-1.097,0.418-1.209,0.997l-5.816,29.921c-0.07,0.361,0.025,0.734,0.259,1.019
	s0.583,0.448,0.951,0.448h6.467c0.589,0,1.097-0.418,1.209-0.996l3.138-16.146h4.153c1.922,0,2.325,0.411,2.342,0.428
	c0.116,0.125,0.27,0.707,0.017,2.008l-2.572,13.239c-0.07,0.361,0.024,0.734,0.259,1.019c0.233,0.284,0.583,0.448,0.95,0.448h6.569
	c0.59,0,1.097-0.418,1.209-0.996l2.706-13.925c0.635-3.269,0.092-5.72-1.614-7.288c-1.628-1.495-4.354-2.221-8.335-2.221H61.51
	l1.26-6.488c0.07-0.361-0.023-0.735-0.258-1.019C62.277,37.275,61.929,37.111,61.561,37.111z M61.561,38.343l-1.546,7.955h5.761
	c3.625,0,6.125,0.633,7.502,1.896c1.376,1.265,1.788,3.314,1.238,6.146L71.81,68.264H65.24l2.572-13.238
	c0.293-1.506,0.186-2.533-0.322-3.081c-0.51-0.548-1.591-0.822-3.245-0.822h-5.168l-3.331,17.141h-6.467l5.815-29.921H61.561z"/>
<path fill="#010101" d="M85.355,62.926c2.477,0,4.326-0.456,5.496-1.356c1.156-0.892,1.956-2.435,2.375-4.589
	c0.391-2.013,0.242-3.418-0.441-4.177c-0.7-0.774-2.212-1.167-4.495-1.167h-3.958l-2.194,11.291H85.355z M72.408,76.835
	c-0.184,0-0.357-0.082-0.475-0.224c-0.117-0.143-0.164-0.329-0.129-0.51l5.814-29.921c0.057-0.29,0.311-0.499,0.605-0.499h12.533
	c3.939,0,6.871,1.07,8.715,3.18c1.853,2.121,2.425,5.085,1.7,8.811c-0.295,1.518-0.802,2.927-1.507,4.19
	c-0.706,1.264-1.639,2.433-2.773,3.476c-1.359,1.271-2.896,2.193-4.565,2.735c-1.644,0.535-3.753,0.807-6.271,0.807H80.98
	l-1.449,7.456c-0.057,0.29-0.31,0.499-0.604,0.499H72.408z"/>
<path fill="#FFFFFF" d="M84.838,52.251h3.451c2.755,0,3.712,0.604,4.037,0.965c0.539,0.598,0.642,1.859,0.295,3.647
	c-0.391,2.002-1.112,3.422-2.147,4.219c-1.06,0.815-2.782,1.229-5.12,1.229h-2.471L84.838,52.251z M90.757,45.066H78.223
	c-0.59,0-1.096,0.417-1.209,0.997l-5.815,29.921c-0.069,0.361,0.024,0.734,0.259,1.019s0.582,0.448,0.95,0.448h6.519
	c0.59,0,1.096-0.418,1.209-0.996l1.352-6.959h4.568c2.583,0,4.758-0.281,6.463-0.837c1.753-0.569,3.366-1.536,4.794-2.872
	c1.181-1.086,2.153-2.305,2.89-3.623c0.738-1.32,1.268-2.792,1.574-4.374c0.764-3.922,0.144-7.063-1.841-9.334
	C97.97,46.207,94.882,45.066,90.757,45.066z M81.389,63.543h3.965c2.628,0,4.586-0.495,5.871-1.485
	c1.287-0.991,2.154-2.644,2.605-4.959c0.432-2.224,0.234-3.793-0.59-4.707s-2.476-1.372-4.951-1.372h-4.467L81.389,63.543z
	 M90.757,46.298c3.771,0,6.521,0.99,8.251,2.969c1.729,1.979,2.249,4.742,1.559,8.289c-0.283,1.461-0.764,2.797-1.439,4.007
	c-0.678,1.211-1.561,2.318-2.652,3.322c-1.303,1.219-2.748,2.086-4.339,2.604s-3.618,0.775-6.081,0.775h-5.584l-1.545,7.955h-6.519
	l5.815-29.921H90.757z"/>
</svg>
