<?xml version="1.0" encoding="utf-8"?>
<!-- Generator: Adobe Illustrator 16.0.0, SVG Export Plug-In . SVG Version: 6.00 Build 0)  -->
<!DOCTYPE svg PUBLIC "-//W3C//DTD SVG 1.1//EN" "http://www.w3.org/Graphics/SVG/1.1/DTD/svg11.dtd">
<svg version="1.1" id="Layer_1" xmlns="http://www.w3.org/2000/svg" xmlns:xlink="http://www.w3.org/1999/xlink" x="0px" y="0px"
	 width="350px" height="400px" viewBox="0 0 350 400" enable-background="new 0 0 350 400" xml:space="preserve">
<g>
	<path fill="#29B6F6" d="M20.552,28.092c-3.519,2.645-5.965,6.716-5.969,11.415v320.906c0,4.766,2.449,8.807,5.996,11.47
		L200.508,200L20.552,28.092z"/>
	
		<linearGradient id="SVGID_1_" gradientUnits="userSpaceOnUse" x1="16.8237" y1="385.001" x2="16.8237" y2="369.0906" gradientTransform="matrix(14.5833 0 0 -14.5833 -137.7917 5670.125)">
		<stop  offset="0" style="stop-color:#00B8D4;stop-opacity:0"/>
		<stop  offset="1" style="stop-color:#FFFFFF;stop-opacity:0.3"/>
	</linearGradient>
	<path fill="url(#SVGID_1_)" d="M20.552,28.092c-3.519,2.645-5.965,6.716-5.969,11.415v320.906c0,4.766,2.449,8.807,5.996,11.47
		L200.508,200L20.552,28.092z"/>
	<path fill="#00E676" d="M255.93,147.055C182.184,106.092,90.574,55.91,35.924,26.672c-5.331-2.843-11.141-1.761-15.372,1.42
		L200.508,200L255.93,147.055z"/>
	
		<linearGradient id="SVGID_2_" gradientUnits="userSpaceOnUse" x1="9.8154" y1="384.6475" x2="26.1973" y2="377.0085" gradientTransform="matrix(14.5833 0 0 -14.5833 -137.7917 5670.125)">
		<stop  offset="0" style="stop-color:#FFFFFF;stop-opacity:0.2"/>
		<stop  offset="1" style="stop-color:#FFFFFF;stop-opacity:0"/>
	</linearGradient>
	<path fill="url(#SVGID_2_)" d="M255.93,147.055C182.184,106.092,90.574,55.91,35.924,26.672c-5.331-2.843-11.141-1.761-15.372,1.42
		L200.508,200L255.93,147.055z"/>
	<path fill="#F44336" d="M20.579,371.883c2.437,1.831,5.313,3.117,8.587,3.117c2.307,0,4.579-0.591,6.75-1.752
		c54.643-29.23,146.226-79.397,219.962-120.353L200.508,200L20.579,371.883z"/>
	
		<linearGradient id="SVGID_3_" gradientUnits="userSpaceOnUse" x1="16.9331" y1="369.3809" x2="20.921" y2="365.393" gradientTransform="matrix(14.5833 0 0 -14.5833 -137.7917 5670.125)">
		<stop  offset="0" style="stop-color:#000000;stop-opacity:0.1"/>
		<stop  offset="1" style="stop-color:#000000;stop-opacity:0"/>
	</linearGradient>
	<path fill="url(#SVGID_3_)" d="M20.579,371.883c2.437,1.831,5.313,3.117,8.587,3.117c2.307,0,4.579-0.591,6.75-1.752
		c54.643-29.23,146.226-79.397,219.962-120.353L200.508,200L20.579,371.883z"/>
	<path fill="#FFEA00" d="M327.997,187.389c-19.629-11.113-44.65-25.105-72.067-40.334L200.508,200l55.371,52.896
		c27.438-15.238,52.477-29.239,72.118-40.357c4.578-2.593,7.42-7.407,7.42-12.578C335.417,194.79,332.575,189.974,327.997,187.389z"
		/>
	
		<linearGradient id="SVGID_4_" gradientUnits="userSpaceOnUse" x1="25.6118" y1="377.5088" x2="30.4388" y2="372.6818" gradientTransform="matrix(14.5833 0 0 -14.5833 -137.7917 5670.125)">
		<stop  offset="0" style="stop-color:#000000;stop-opacity:0.05"/>
		<stop  offset="1" style="stop-color:#000000;stop-opacity:0"/>
	</linearGradient>
	<path fill="url(#SVGID_4_)" d="M327.997,187.389c-19.629-11.113-44.65-25.105-72.067-40.334L200.508,200l55.371,52.896
		c27.438-15.238,52.477-29.239,72.118-40.357c4.578-2.593,7.42-7.407,7.42-12.578C335.417,194.79,332.575,189.974,327.997,187.389z"
		/>
	<path opacity="0.2" fill="#FFFFFF" enable-background="new    " d="M34.883,30.318c75.529,40.106,221.292,119.712,294.26,160.717
		c2.664,1.493,4.647,3.774,5.93,6.394c-0.767-4.163-3.263-7.888-7.075-10.04C255.571,146.385,110.892,66.778,35.924,26.672
		c-8.965-4.782-19.343,1.351-21.002,10.393C18.346,30.165,27.135,26.217,34.883,30.318z"/>
	<path opacity="0.1" enable-background="new    " d="M34.883,369.682c75.529-40.105,221.292-119.713,294.26-160.717
		c2.664-1.492,4.647-3.773,5.93-6.395c-0.767,4.163-3.263,7.889-7.075,10.041c-72.426,41.004-217.105,120.61-292.073,160.717
		c-8.965,4.781-19.343-1.352-21.002-10.394C18.346,369.835,27.135,373.783,34.883,369.682z"/>
	
		<linearGradient id="SVGID_5_" gradientUnits="userSpaceOnUse" x1="6.3359" y1="377.4863" x2="28.7817" y2="367.0197" gradientTransform="matrix(14.5833 0 0 -14.5833 -137.7917 5670.125)">
		<stop  offset="0" style="stop-color:#FFFFFF;stop-opacity:0.2"/>
		<stop  offset="1" style="stop-color:#FFFFFF;stop-opacity:0"/>
	</linearGradient>
	<path fill="url(#SVGID_5_)" d="M327.997,187.374C308.368,176.26,90.574,55.884,35.924,26.645
		c-5.331-2.843-11.141-1.761-15.372,1.42c-3.519,2.645-5.965,6.717-5.969,11.416v320.932c0,4.766,2.449,8.807,5.996,11.471
		c2.437,1.831,5.313,3.117,8.587,3.117c2.307,0,4.579-0.592,6.75-1.753c54.643-29.231,272.438-149.603,292.08-160.722
		c4.578-2.593,7.42-7.408,7.42-12.58C335.417,194.775,332.575,189.959,327.997,187.374z"/>
</g>
</svg>
