<?xml version="1.0" encoding="utf-8"?>
<!-- Generator: Adobe Illustrator 16.0.0, SVG Export Plug-In . SVG Version: 6.00 Build 0)  -->
<!DOCTYPE svg PUBLIC "-//W3C//DTD SVG 1.1//EN" "http://www.w3.org/Graphics/SVG/1.1/DTD/svg11.dtd">
<svg version="1.1" id="Layer_1" xmlns="http://www.w3.org/2000/svg" xmlns:xlink="http://www.w3.org/1999/xlink" x="0px" y="0px"
	 width="120px" height="120px" viewBox="0 0 120 120" enable-background="new 0 0 120 120" xml:space="preserve">
<g>
	<defs>
		<rect id="SVGID_1_" x="4.08" y="4.21" width="113.17" height="112.58"/>
	</defs>
	<clipPath id="SVGID_2_">
		<use xlink:href="#SVGID_1_"  overflow="visible"/>
	</clipPath>
	<g clip-path="url(#SVGID_2_)">
		
			<linearGradient id="SVGID_3_" gradientUnits="userSpaceOnUse" x1="260.6914" y1="-228.3145" x2="316.6502" y2="-284.4604" gradientTransform="matrix(1 0 0 -1 -246 -214)">
			<stop  offset="0" style="stop-color:#3A7FB9"/>
			<stop  offset="1" style="stop-color:#386A95"/>
		</linearGradient>
		<path fill="url(#SVGID_3_)" d="M60.257,4.21c-28.73,0-26.936,12.459-26.936,12.459l0.033,12.907H60.77v3.875H22.464
			c0,0-18.384-2.084-18.384,26.904c0,28.988,16.046,27.96,16.046,27.96h9.576V74.862c0,0-0.517-16.044,15.79-16.044
			c16.306,0,27.191,0,27.191,0S87.96,59.064,87.96,44.052c0-15.011,0-24.821,0-24.821S90.281,4.21,60.257,4.21z M45.14,12.889
			c2.728,0,4.933,2.205,4.933,4.933s-2.205,4.933-4.933,4.933s-4.933-2.205-4.933-4.933S42.412,12.889,45.14,12.889z"/>
		
			<linearGradient id="SVGID_4_" gradientUnits="userSpaceOnUse" x1="295.1025" y1="-264.0586" x2="355.2025" y2="-321.6375" gradientTransform="matrix(1 0 0 -1 -246 -214)">
			<stop  offset="0" style="stop-color:#FEE053"/>
			<stop  offset="1" style="stop-color:#FFC433"/>
		</linearGradient>
		<path fill="url(#SVGID_4_)" d="M61.073,116.79c28.729,0,26.936-12.458,26.936-12.458l-0.031-12.907H60.561v-3.876h38.306
			c0,0,18.383,2.086,18.383-26.903c0-28.988-16.045-27.96-16.045-27.96h-9.577v13.452c0,0,0.517,16.044-15.789,16.044
			c-16.307,0-27.192,0-27.192,0S33.37,61.936,33.37,76.949c0,15.012,0,24.82,0,24.82S31.05,116.79,61.073,116.79z M76.191,108.111
			c-2.729,0-4.932-2.204-4.932-4.933c0-2.727,2.202-4.933,4.932-4.933c2.726,0,4.932,2.206,4.932,4.933
			C81.123,105.907,78.917,108.111,76.191,108.111z"/>
	</g>
</g>
</svg>
