<?xml version="1.0" encoding="utf-8"?>
<!-- Generator: Adobe Illustrator 16.0.0, SVG Export Plug-In . SVG Version: 6.00 Build 0)  -->
<!DOCTYPE svg PUBLIC "-//W3C//DTD SVG 1.1//EN" "http://www.w3.org/Graphics/SVG/1.1/DTD/svg11.dtd">
<svg version="1.1" id="Layer_1" xmlns="http://www.w3.org/2000/svg" xmlns:xlink="http://www.w3.org/1999/xlink" x="0px" y="0px"
	 width="120px" height="120px" viewBox="0 0 120 120" enable-background="new 0 0 120 120" xml:space="preserve">
<g transform="matrix(1.25305,0,0,1.25305,-16.3076,4.57191)">
	<circle fill="#70CFF0" cx="61.267" cy="43.98" r="8.476"/>
	<path fill="#70CFF0" d="M61.267,75.151C67.92,81.621,74.482,85.45,79.769,85.45c1.732,0,3.372-0.365,4.739-1.185
		c4.739-2.735,6.471-9.57,4.83-19.322c-0.274-1.732-0.638-3.463-1.093-5.286c1.823-0.546,3.463-1.093,5.103-1.641
		c9.206-3.555,14.31-8.476,14.31-13.853c0-5.468-5.104-10.39-14.31-13.853c-1.641-0.638-3.28-1.185-5.103-1.641
		c0.455-1.823,0.82-3.555,1.093-5.286c1.549-9.934-0.182-16.861-4.922-19.595c-1.367-0.82-3.007-1.185-4.739-1.185
		c-5.195,0-11.848,3.828-18.502,10.299C54.613,6.43,48.051,2.602,42.765,2.602c-1.732,0-3.372,0.365-4.74,1.185
		c-4.739,2.734-6.471,9.57-4.83,19.322c0.274,1.732,0.638,3.463,1.094,5.286c-1.823,0.547-3.463,1.094-5.104,1.641
		c-9.205,3.555-14.309,8.476-14.309,13.854c0,5.468,5.104,10.39,14.309,13.854c1.641,0.638,3.281,1.185,5.104,1.641
		c-0.456,1.823-0.82,3.554-1.094,5.286c-1.549,9.753,0.182,16.679,4.83,19.322c1.367,0.82,3.008,1.185,4.74,1.185
		C48.051,85.358,54.613,81.53,61.267,75.151z M56.163,62.846c1.641,0.091,3.372,0.091,5.104,0.091c1.732,0,3.464,0,5.104-0.091
		c-1.641,2.188-3.372,4.193-5.104,6.107C59.535,67.039,57.803,65.034,56.163,62.846z M44.861,53.459
		c0.911,1.549,1.732,3.008,2.734,4.466c-2.826-0.364-5.469-0.82-8.02-1.367c0.82-2.46,1.731-5.013,2.825-7.564
		C43.13,50.451,43.95,52.001,44.861,53.459z M39.575,31.494c2.552-0.547,5.195-1.003,8.02-1.367
		c-0.911,1.458-1.823,2.917-2.734,4.466C43.95,36.142,43.13,37.6,42.4,39.15C41.215,36.507,40.304,33.955,39.575,31.494z
		 M44.588,43.98c1.185-2.461,2.461-4.922,3.919-7.382c1.367-2.37,2.916-4.739,4.466-7.109c2.734-0.182,5.469-0.274,8.294-0.274
		c2.917,0,5.651,0.091,8.294,0.274c1.641,2.37,3.099,4.739,4.466,7.109c1.458,2.461,2.735,4.922,3.919,7.382
		c-1.185,2.461-2.461,4.922-3.919,7.382c-1.367,2.37-2.916,4.739-4.466,7.109c-2.735,0.182-5.469,0.274-8.294,0.274
		c-2.916,0-5.651-0.091-8.294-0.274c-1.641-2.37-3.099-4.739-4.466-7.109C47.049,48.902,45.773,46.441,44.588,43.98z M80.224,39.058
		l-2.46-4.557c-0.912-1.549-1.732-3.008-2.735-4.466c2.826,0.365,5.469,0.82,8.021,1.367C82.229,33.955,81.318,36.507,80.224,39.058
		z M80.224,48.902c1.094,2.552,2.005,5.104,2.826,7.564c-2.552,0.547-5.195,1.003-8.021,1.367c0.912-1.458,1.823-2.916,2.735-4.466
		C78.583,52.001,79.404,50.451,80.224,48.902z M82.32,80.528c-0.729,0.456-1.641,0.638-2.643,0.638
		c-4.466,0-10.026-3.646-15.494-9.114c2.643-2.825,5.195-6.015,7.747-9.57c4.284-0.365,8.385-1.003,12.213-1.914
		c0.456,1.641,0.729,3.281,1.002,4.922C86.422,73.236,85.419,78.796,82.32,80.528z M87.059,32.496
		c10.208,2.917,16.315,7.382,16.315,11.484c0,3.555-4.193,7.11-11.576,9.935c-1.458,0.546-3.099,1.093-4.739,1.549
		c-1.185-3.737-2.643-7.565-4.466-11.484C84.417,40.061,85.966,36.233,87.059,32.496z M79.769,6.795
		c1.002,0,1.823,0.182,2.643,0.638c3.008,1.732,4.102,7.2,2.825,15.038c-0.273,1.549-0.638,3.19-1.002,4.922
		c-3.828-0.82-7.929-1.458-12.213-1.914c-2.46-3.555-5.104-6.744-7.747-9.57C69.743,10.532,75.302,6.795,79.769,6.795z
		 M66.371,25.114c-1.641-0.091-3.372-0.091-5.104-0.091c-1.731,0-3.463,0-5.104,0.091c1.641-2.187,3.372-4.193,5.104-6.107
		C62.999,20.922,64.73,23.018,66.371,25.114z M40.213,7.433c0.729-0.456,1.641-0.638,2.643-0.638c4.466,0,10.026,3.646,15.494,9.114
		c-2.643,2.826-5.195,6.015-7.747,9.57c-4.284,0.364-8.385,1.002-12.213,1.914c-0.456-1.641-0.729-3.281-1.003-4.922
		C36.112,14.724,37.114,9.255,40.213,7.433z M35.474,55.464c-10.208-2.916-16.314-7.383-16.314-11.484
		c0-3.554,4.193-7.109,11.575-9.934c1.458-0.547,3.099-1.093,4.739-1.549c1.185,3.737,2.643,7.565,4.466,11.484
		C38.117,47.899,36.567,51.818,35.474,55.464z M37.388,65.49c0.274-1.549,0.638-3.19,1.003-4.922
		c3.828,0.82,7.929,1.458,12.213,1.914c2.461,3.555,5.104,6.744,7.747,9.57c-5.468,5.378-11.028,9.114-15.494,9.114
		c-1.003,0-1.823-0.182-2.643-0.638C37.114,78.796,36.112,73.236,37.388,65.49z"/>
</g>
</svg>
